<svg xmlns="http://www.w3.org/2000/svg" viewBox="0 0 500 500"><g id="freepik--background-complete--inject-92"><rect x="416.78" y="398.49" width="33.12" height="0.25" style="fill:#ebebeb"></rect><rect x="322.53" y="401.21" width="8.69" height="0.25" style="fill:#ebebeb"></rect><rect x="396.59" y="389.21" width="19.19" height="0.25" style="fill:#ebebeb"></rect><rect x="52.46" y="390.89" width="43.19" height="0.25" style="fill:#ebebeb"></rect><rect x="104.56" y="390.89" width="6.33" height="0.25" style="fill:#ebebeb"></rect><rect x="131.47" y="395.11" width="93.68" height="0.25" style="fill:#ebebeb"></rect><path d="M237,337.8H43.92a5.71,5.71,0,0,1-5.71-5.71V60.66A5.71,5.71,0,0,1,43.92,55H237a5.71,5.71,0,0,1,5.71,5.71V332.09A5.71,5.71,0,0,1,237,337.8ZM43.92,55.2a5.47,5.47,0,0,0-5.46,5.46V332.09a5.47,5.47,0,0,0,5.46,5.46H237a5.47,5.47,0,0,0,5.46-5.46V60.66A5.47,5.47,0,0,0,237,55.2Z" style="fill:#ebebeb"></path><path d="M453.31,337.8H260.21a5.72,5.72,0,0,1-5.71-5.71V60.66A5.72,5.72,0,0,1,260.21,55h193.1A5.71,5.71,0,0,1,459,60.66V332.09A5.71,5.71,0,0,1,453.31,337.8ZM260.21,55.2a5.47,5.47,0,0,0-5.46,5.46V332.09a5.47,5.47,0,0,0,5.46,5.46h193.1a5.47,5.47,0,0,0,5.46-5.46V60.66a5.47,5.47,0,0,0-5.46-5.46Z" style="fill:#ebebeb"></path><rect y="382.4" width="500" height="0.25" style="fill:#ebebeb"></rect><rect x="110.34" y="105.11" width="279.32" height="158" style="fill:#e0e0e0"></rect><rect x="107.25" y="260.36" width="285.5" height="6.6" rx="1.64" style="fill:#ebebeb"></rect><rect x="116.75" y="105.11" width="266.49" height="151.95" style="fill:#fafafa"></rect><path d="M264.67,290.13,251.5,275.64V267a1.5,1.5,0,1,0-3,0v8.67l-13.17,14.49c-1.37,1.51.75,3.84,2.12,2.34q5.52-6.09,11.05-12.16v10.87a1.5,1.5,0,1,0,3,0V280.31q5.52,6.07,11.05,12.16C263.92,294,266,291.64,264.67,290.13Z" style="fill:#e6e6e6"></path><rect x="99.87" y="97.86" width="300.27" height="14.5" rx="4.14" style="fill:#f0f0f0"></rect><rect x="68.8" y="293.46" width="118.06" height="40.75" style="fill:#ebebeb"></rect><rect x="68.8" y="334.21" width="118.06" height="40.75" style="fill:#ebebeb"></rect><polygon points="113.66 334.21 128.34 293.46 105.74 293.46 91.05 334.21 113.66 334.21" style="fill:#f0f0f0"></polygon><polygon points="139.29 293.46 134.32 293.46 119.63 334.21 124.6 334.21 139.29 293.46" style="fill:#f0f0f0"></polygon><polygon points="98.97 374.96 113.66 334.21 91.05 334.21 76.36 374.96 98.97 374.96" style="fill:#f0f0f0"></polygon><polygon points="124.6 334.21 119.63 334.21 104.94 374.96 109.91 374.96 124.6 334.21" style="fill:#f0f0f0"></polygon><rect x="125.76" y="238.64" width="4.12" height="118.06" transform="translate(425.49 169.84) rotate(90)" style="fill:#e0e0e0"></rect><rect x="125.76" y="279.07" width="4.12" height="118.06" transform="translate(465.92 210.27) rotate(90)" style="fill:#e0e0e0"></rect><path d="M130.84,319.05a1.77,1.77,0,1,0,0-3.54h-6a1.77,1.77,0,1,0,0,3.54Z" style="fill:#e0e0e0"></path><path d="M130.84,318.42a1.77,1.77,0,1,0,0-3.54h-6a1.77,1.77,0,1,0,0,3.54Z" style="fill:#f5f5f5"></path><path d="M130.84,356.67a1.78,1.78,0,0,0,0-3.55h-6a1.78,1.78,0,0,0,0,3.55Z" style="fill:#e0e0e0"></path><path d="M130.84,356a1.77,1.77,0,1,0,0-3.54h-6a1.77,1.77,0,1,0,0,3.54Z" style="fill:#f5f5f5"></path><path d="M66.73,291.63v85.11H188.91V291.63Zm118.06,81H70.86V336.36H184.79Zm0-40.38H70.86V296H184.79Z" style="fill:#f5f5f5"></path><rect x="190.97" y="293.46" width="118.06" height="40.75" style="fill:#ebebeb"></rect><rect x="190.97" y="334.21" width="118.06" height="40.75" style="fill:#ebebeb"></rect><polygon points="282.5 334.21 297.19 293.46 274.59 293.46 259.9 334.21 282.5 334.21" style="fill:#f0f0f0"></polygon><polygon points="308.13 293.46 303.17 293.46 288.48 334.21 293.44 334.21 308.13 293.46" style="fill:#f0f0f0"></polygon><polygon points="267.82 374.96 282.5 334.21 259.9 334.21 245.21 374.96 267.82 374.96" style="fill:#f0f0f0"></polygon><polygon points="293.44 334.21 288.48 334.21 273.79 374.96 278.76 374.96 293.44 334.21" style="fill:#f0f0f0"></polygon><rect x="247.94" y="238.63" width="4.12" height="118.06" transform="translate(547.66 47.66) rotate(90)" style="fill:#e0e0e0"></rect><rect x="247.94" y="279.07" width="4.12" height="118.06" transform="translate(588.1 88.09) rotate(90)" style="fill:#e0e0e0"></rect><path d="M253,319.05a1.77,1.77,0,0,0,0-3.54h-6a1.77,1.77,0,1,0,0,3.54Z" style="fill:#e0e0e0"></path><path d="M253,318.42a1.77,1.77,0,0,0,0-3.54h-6a1.77,1.77,0,1,0,0,3.54Z" style="fill:#f5f5f5"></path><path d="M253,356.67a1.78,1.78,0,0,0,0-3.55h-6a1.78,1.78,0,0,0,0,3.55Z" style="fill:#e0e0e0"></path><path d="M253,356a1.77,1.77,0,0,0,0-3.54h-6a1.77,1.77,0,1,0,0,3.54Z" style="fill:#f5f5f5"></path><path d="M188.91,291.63v85.11H311.09V291.63Zm118.06,81H193V336.36H307Zm0-40.38H193V296H307Z" style="fill:#f5f5f5"></path><rect x="313.15" y="293.46" width="118.06" height="40.75" style="fill:#ebebeb"></rect><rect x="313.15" y="334.21" width="118.06" height="40.75" style="fill:#ebebeb"></rect><polygon points="387.91 334.21 402.6 293.46 379.99 293.46 365.3 334.21 387.91 334.21" style="fill:#f0f0f0"></polygon><polygon points="413.54 293.46 408.57 293.46 393.88 334.21 398.85 334.21 413.54 293.46" style="fill:#f0f0f0"></polygon><polygon points="373.22 374.96 387.91 334.21 365.3 334.21 350.61 374.96 373.22 374.96" style="fill:#f0f0f0"></polygon><polygon points="398.85 334.21 393.88 334.21 379.19 374.96 384.16 374.96 398.85 334.21" style="fill:#f0f0f0"></polygon><rect x="370.12" y="238.63" width="4.12" height="118.06" transform="translate(669.84 -74.51) rotate(90)" style="fill:#e0e0e0"></rect><rect x="370.12" y="279.07" width="4.12" height="118.06" transform="translate(710.27 -34.08) rotate(90)" style="fill:#e0e0e0"></rect><path d="M375.2,319.05a1.77,1.77,0,1,0,0-3.54h-6a1.77,1.77,0,1,0,0,3.54Z" style="fill:#e0e0e0"></path><path d="M375.2,318.42a1.77,1.77,0,1,0,0-3.54h-6a1.77,1.77,0,1,0,0,3.54Z" style="fill:#f5f5f5"></path><path d="M375.2,356.67a1.78,1.78,0,0,0,0-3.55h-6a1.78,1.78,0,0,0,0,3.55Z" style="fill:#e0e0e0"></path><path d="M375.2,356a1.77,1.77,0,1,0,0-3.54h-6a1.77,1.77,0,1,0,0,3.54Z" style="fill:#f5f5f5"></path><path d="M311.09,291.63v85.11H433.27V291.63Zm118.05,81H315.21V336.36H429.14Zm0-40.38H315.21V296H429.14Z" style="fill:#f5f5f5"></path><polygon points="421.45 382.87 78.55 382.87 76.76 376.74 423.24 376.74 421.45 382.87" style="fill:#e0e0e0"></polygon></g><g id="freepik--Shadow--inject-92"><ellipse id="freepik--path--inject-92" cx="245.18" cy="412.39" rx="193.89" ry="11.32" style="fill:#f5f5f5"></ellipse></g><g id="freepik--Data--inject-92"><path d="M258.75,122.34l-3.68,70.25a6.43,6.43,0,0,0,6.49,6.85h92.87a7.29,7.29,0,0,0,7.2-6.85l3.69-70.25a6.44,6.44,0,0,0-6.49-6.85H266A7.3,7.3,0,0,0,258.75,122.34Z" style="fill:#0F4B8F"></path><path d="M258.75,122.34l-3.68,70.25a6.43,6.43,0,0,0,6.49,6.85h92.87a7.29,7.29,0,0,0,7.2-6.85l3.69-70.25a6.44,6.44,0,0,0-6.49-6.85H266A7.3,7.3,0,0,0,258.75,122.34Z" style="fill:#fff;opacity:0.5"></path><path d="M361.13,115.49h-2.3a6.44,6.44,0,0,1,6.49,6.85l-3.69,70.25a7.29,7.29,0,0,1-7.2,6.85h2.3a7.29,7.29,0,0,0,7.2-6.85l3.69-70.25A6.44,6.44,0,0,0,361.13,115.49Z" style="fill:#0F4B8F"></path><path d="M266.46,123.25l-3.58,68.43h91l3.59-68.43Zm89.89,11H345.91l.54-10.45H356.9ZM309.59,158l-.54,10.16H298.9l.53-10.16Zm-10.1-1.15.53-10.16h10.16l-.53,10.16ZM310.74,158h10.15l-.53,10.16H310.2Zm.06-1.15.53-10.16h10.16L321,156.89Zm11.84-10.16H332.8l-.54,10.16H322.1Zm.06-1.15.53-10.15h10.16l-.53,10.15Zm-1.15,0H311.39l.53-10.15h10.16Zm-11.31,0H300.08l.53-10.15h10.16Zm-11.31,0H288.77l.53-10.15h10.16Zm-.06,1.15-.53,10.16H288.18l.53-10.16ZM287,156.89H276.87l.53-10.16h10.16ZM287,158l-.53,10.16H276.28l.53-10.16Zm1.15,0h10.16l-.53,10.16H287.59Zm9.57,11.31-.54,10.16H287l.54-10.16Zm1.15,0H309l-.53,10.16H298.3Zm11.3,0H320.3l-.53,10.16H309.61Zm11.31,0h10.16l-.53,10.16H320.92Zm.06-1.15L322,158H332.2l-.53,10.16ZM333.35,158h10.16L343,168.2H332.82Zm.06-1.15.54-10.16H344.1l-.53,10.16Zm.6-11.31.53-10.15H344.7l-.54,10.15Zm.59-11.3.55-10.45H345.3l-.54,10.45Zm-1.15,0H323.29l.55-10.45H334Zm-11.31,0H312l.55-10.45h10.16Zm-11.31,0H300.67l.55-10.45h10.16Zm-11.31,0H289.37l.54-10.45h10.16Zm-11.3,0H278.06l.54-10.45h10.16Zm-.07,1.15-.53,10.15H277.46l.54-10.15Zm-11.84,10.15H265.87l.53-10.15h10.45Zm-.06,1.15-.53,10.16H265.28l.53-10.16ZM275.66,158l-.53,10.16H264.68l.54-10.16Zm-.59,11.31-.53,10.16H264.09l.53-10.16Zm1.15,0h10.16l-.54,10.16H275.69Zm9.56,11.31-.54,10.44H275.08l.55-10.44Zm1.15,0h10.16l-.54,10.44H286.39Zm11.31,0H308.4l-.55,10.44H297.7Zm11.31,0h10.16l-.55,10.44H309Zm11.31,0H331l-.55,10.44H320.31Zm11.31,0h10.16l-.55,10.44H331.62Zm.06-1.15.53-10.16h10.16l-.53,10.16Zm11.84-10.16h10.44L354,179.51H343.54Zm.06-1.15.53-10.16h10.45l-.54,10.16Zm.59-11.31.53-10.16H355.7l-.53,10.16Zm.59-11.31.54-10.15h10.44l-.53,10.15Zm-67.86-21.75-.54,10.45H266.46l.55-10.45ZM264,180.66h10.45l-.55,10.44H263.48Zm78.9,10.44.55-10.44h10.44l-.55,10.44Z" style="fill:#0F4B8F"></path><path d="M266.46,123.25l-3.58,68.43h91l3.59-68.43Zm89.89,11H345.91l.54-10.45H356.9ZM309.59,158l-.54,10.16H298.9l.53-10.16Zm-10.1-1.15.53-10.16h10.16l-.53,10.16ZM310.74,158h10.15l-.53,10.16H310.2Zm.06-1.15.53-10.16h10.16L321,156.89Zm11.84-10.16H332.8l-.54,10.16H322.1Zm.06-1.15.53-10.15h10.16l-.53,10.15Zm-1.15,0H311.39l.53-10.15h10.16Zm-11.31,0H300.08l.53-10.15h10.16Zm-11.31,0H288.77l.53-10.15h10.16Zm-.06,1.15-.53,10.16H288.18l.53-10.16ZM287,156.89H276.87l.53-10.16h10.16ZM287,158l-.53,10.16H276.28l.53-10.16Zm1.15,0h10.16l-.53,10.16H287.59Zm9.57,11.31-.54,10.16H287l.54-10.16Zm1.15,0H309l-.53,10.16H298.3Zm11.3,0H320.3l-.53,10.16H309.61Zm11.31,0h10.16l-.53,10.16H320.92Zm.06-1.15L322,158H332.2l-.53,10.16ZM333.35,158h10.16L343,168.2H332.82Zm.06-1.15.54-10.16H344.1l-.53,10.16Zm.6-11.31.53-10.15H344.7l-.54,10.15Zm.59-11.3.55-10.45H345.3l-.54,10.45Zm-1.15,0H323.29l.55-10.45H334Zm-11.31,0H312l.55-10.45h10.16Zm-11.31,0H300.67l.55-10.45h10.16Zm-11.31,0H289.37l.54-10.45h10.16Zm-11.3,0H278.06l.54-10.45h10.16Zm-.07,1.15-.53,10.15H277.46l.54-10.15Zm-11.84,10.15H265.87l.53-10.15h10.45Zm-.06,1.15-.53,10.16H265.28l.53-10.16ZM275.66,158l-.53,10.16H264.68l.54-10.16Zm-.59,11.31-.53,10.16H264.09l.53-10.16Zm1.15,0h10.16l-.54,10.16H275.69Zm9.56,11.31-.54,10.44H275.08l.55-10.44Zm1.15,0h10.16l-.54,10.44H286.39Zm11.31,0H308.4l-.55,10.44H297.7Zm11.31,0h10.16l-.55,10.44H309Zm11.31,0H331l-.55,10.44H320.31Zm11.31,0h10.16l-.55,10.44H331.62Zm.06-1.15.53-10.16h10.16l-.53,10.16Zm11.84-10.16h10.44L354,179.51H343.54Zm.06-1.15.53-10.16h10.45l-.54,10.16Zm.59-11.31.53-10.16H355.7l-.53,10.16Zm.59-11.31.54-10.15h10.44l-.53,10.15Zm-67.86-21.75-.54,10.45H266.46l.55-10.45ZM264,180.66h10.45l-.55,10.44H263.48Zm78.9,10.44.55-10.44h10.44l-.55,10.44Z" style="fill:#fff;opacity:0.25"></path><path d="M338.93,162.9,312,160.13l25.21-9.36.28-5.26c-5-7.43-15.43-12.5-27.8-12.5-17.72,0-32.64,10.42-33.31,23.27,0,.37,0,.74,0,1.11s-.24,3.78-.26,4.15c-.67,12.86,13.15,23.27,30.88,23.27,14.55,0,27.2-7,31.64-16.64Z" style="opacity:0.1"></path><path d="M326.94,155.61l30.42,6.62a18,18,0,0,0,1.68-6.62c0-.65,0-1.28,0-1.92a16.37,16.37,0,0,0,.22-2,17.51,17.51,0,0,0-3.08-10.77l-29,10.77Z" style="opacity:0.1"></path><path d="M336.75,160.6l-26.9-2.77,25.21-9.36.28-5.26c-5-7.43-15.43-12.5-27.8-12.5-17.72,0-32.64,10.42-33.31,23.27,0,.37,0,.74,0,1.11s-.24,3.78-.26,4.15c-.67,12.86,13.15,23.27,30.88,23.27,14.55,0,27.2-7,31.64-16.64Z" style="fill:#0F4B8F"></path><path d="M306.32,154l29-10.77c-5-7.43-15.43-12.5-27.8-12.5-17.72,0-32.64,10.42-33.31,23.27s13.15,23.27,30.87,23.27c14.56,0,27.21-7,31.65-16.65Z" style="fill:#fff"></path><path d="M324.76,153.31l30.42,6.62a18,18,0,0,0,1.68-6.62c0-.65,0-1.28,0-1.92a16.37,16.37,0,0,0,.22-2A17.51,17.51,0,0,0,354,138.63L325,149.4Z" style="fill:#0F4B8F"></path><path d="M355.39,156a17.91,17.91,0,0,0,1.67-6.62A17.51,17.51,0,0,0,354,138.63L325,149.4Z" style="fill:#fff"></path><path d="M270.59,166.89l2.7-51.4H266a7.3,7.3,0,0,0-7.21,6.85l-3.68,70.25a6.43,6.43,0,0,0,6.49,6.85h44l.67-12.69a10.59,10.59,0,0,0-10.64-11.22H266.24A12.2,12.2,0,0,0,270.59,166.89Z" style="opacity:0.1"></path><path d="M160.42,96.37l-3.69,70.26a6.44,6.44,0,0,0,6.49,6.85h92.87a7.3,7.3,0,0,0,7.21-6.85L267,96.37a6.42,6.42,0,0,0-6.49-6.84H167.62A7.28,7.28,0,0,0,160.42,96.37Z" style="fill:#0F4B8F"></path><path d="M160.42,96.37l-3.69,70.26a6.44,6.44,0,0,0,6.49,6.85h92.87a7.3,7.3,0,0,0,7.21-6.85L267,96.37a6.42,6.42,0,0,0-6.49-6.84H167.62A7.28,7.28,0,0,0,160.42,96.37Z" style="fill:#fff;opacity:0.5"></path><path d="M262.79,89.53h-2.3A6.42,6.42,0,0,1,267,96.37l-3.68,70.26a7.3,7.3,0,0,1-7.21,6.85h2.3a7.3,7.3,0,0,0,7.21-6.85l3.68-70.26A6.42,6.42,0,0,0,262.79,89.53Z" style="fill:#0F4B8F"></path><path d="M168.13,97.29l-3.59,68.42h91.05l3.58-68.42Zm89.89,11H247.57l.55-10.45h10.45Zm-46.77,23.77-.53,10.15H200.56l.53-10.15Zm-10.09-1.15.53-10.16h10.16l-.54,10.16Zm11.24,1.15h10.16L222,142.23H211.87Zm.06-1.15.54-10.16h10.15l-.53,10.16Zm11.84-10.16h10.16l-.53,10.16H223.77Zm.06-1.15.54-10.16h10.16l-.54,10.16Zm-1.15,0H213.06l.53-10.16h10.16Zm-11.3,0H201.75l.53-10.16h10.16Zm-11.31,0H190.44l.53-10.16h10.16Zm-.06,1.15L200,130.93H189.85l.53-10.16ZM188.7,130.93H178.54l.53-10.16h10.16Zm-.06,1.15-.54,10.15H178l.53-10.15Zm1.15,0h10.15l-.53,10.15H189.25Zm9.56,11.3-.53,10.16H188.66l.53-10.16Zm1.15,0h10.16l-.53,10.16H200Zm11.31,0H222l-.53,10.16H211.28Zm11.31,0h10.16l-.54,10.16H222.59Zm.06-1.15.53-10.15h10.16l-.53,10.15ZM235,132.08h10.16l-.53,10.15H234.49Zm.06-1.15.53-10.16h10.16l-.53,10.16Zm.59-11.31.54-10.16h10.15l-.53,10.16Zm.6-11.31.54-10.45H247l-.55,10.45Zm-1.15,0H225l.54-10.45h10.16Zm-11.31,0H213.65l.55-10.45h10.15Zm-11.31,0H202.34l.55-10.45h10.16Zm-11.31,0H191l.55-10.45h10.16Zm-11.31,0H179.72l.55-10.45h10.16Zm-.06,1.15-.53,10.16H179.13l.53-10.16ZM178,119.62H167.54l.53-10.16h10.44Zm-.06,1.15-.53,10.16H166.94l.53-10.16Zm-.59,11.31-.53,10.15H166.35l.53-10.15Zm-.59,11.3-.54,10.16H165.76l.53-10.16Zm1.15,0H188l-.53,10.16H177.35Zm9.56,11.31-.55,10.45H176.75l.54-10.45Zm1.15,0h10.16l-.55,10.45H188.05Zm11.31,0h10.16l-.55,10.45H199.36Zm11.31,0h10.16l-.55,10.45H210.67Zm11.31,0h10.15l-.54,10.45H222Zm11.3,0H244l-.54,10.45H233.29Zm.06-1.15.54-10.16h10.16l-.54,10.16Zm11.85-10.16h10.44l-.53,10.16H245.2Zm.06-1.15.53-10.15h10.44l-.53,10.15Zm.59-11.3.53-10.16h10.45l-.54,10.16Zm.59-11.31.53-10.16H258l-.53,10.16ZM179.12,97.86l-.55,10.45H168.13l.55-10.45ZM165.7,154.69h10.44l-.54,10.45H165.15Zm78.9,10.45.54-10.45h10.45L255,165.14Z" style="fill:#0F4B8F"></path><path d="M168.13,97.29l-3.59,68.42h91.05l3.58-68.42Zm89.89,11H247.57l.55-10.45h10.45Zm-46.77,23.77-.53,10.15H200.56l.53-10.15Zm-10.09-1.15.53-10.16h10.16l-.54,10.16Zm11.24,1.15h10.16L222,142.23H211.87Zm.06-1.15.54-10.16h10.15l-.53,10.16Zm11.84-10.16h10.16l-.53,10.16H223.77Zm.06-1.15.54-10.16h10.16l-.54,10.16Zm-1.15,0H213.06l.53-10.16h10.16Zm-11.3,0H201.75l.53-10.16h10.16Zm-11.31,0H190.44l.53-10.16h10.16Zm-.06,1.15L200,130.93H189.85l.53-10.16ZM188.7,130.93H178.54l.53-10.16h10.16Zm-.06,1.15-.54,10.15H178l.53-10.15Zm1.15,0h10.15l-.53,10.15H189.25Zm9.56,11.3-.53,10.16H188.66l.53-10.16Zm1.15,0h10.16l-.53,10.16H200Zm11.31,0H222l-.53,10.16H211.28Zm11.31,0h10.16l-.54,10.16H222.59Zm.06-1.15.53-10.15h10.16l-.53,10.15ZM235,132.08h10.16l-.53,10.15H234.49Zm.06-1.15.53-10.16h10.16l-.53,10.16Zm.59-11.31.54-10.16h10.15l-.53,10.16Zm.6-11.31.54-10.45H247l-.55,10.45Zm-1.15,0H225l.54-10.45h10.16Zm-11.31,0H213.65l.55-10.45h10.15Zm-11.31,0H202.34l.55-10.45h10.16Zm-11.31,0H191l.55-10.45h10.16Zm-11.31,0H179.72l.55-10.45h10.16Zm-.06,1.15-.53,10.16H179.13l.53-10.16ZM178,119.62H167.54l.53-10.16h10.44Zm-.06,1.15-.53,10.16H166.94l.53-10.16Zm-.59,11.31-.53,10.15H166.35l.53-10.15Zm-.59,11.3-.54,10.16H165.76l.53-10.16Zm1.15,0H188l-.53,10.16H177.35Zm9.56,11.31-.55,10.45H176.75l.54-10.45Zm1.15,0h10.16l-.55,10.45H188.05Zm11.31,0h10.16l-.55,10.45H199.36Zm11.31,0h10.16l-.55,10.45H210.67Zm11.31,0h10.15l-.54,10.45H222Zm11.3,0H244l-.54,10.45H233.29Zm.06-1.15.54-10.16h10.16l-.54,10.16Zm11.85-10.16h10.44l-.53,10.16H245.2Zm.06-1.15.53-10.15h10.44l-.53,10.15Zm.59-11.3.53-10.16h10.45l-.54,10.16Zm.59-11.31.53-10.16H258l-.53,10.16ZM179.12,97.86l-.55,10.45H168.13l.55-10.45ZM165.7,154.69h10.44l-.54,10.45H165.15Zm78.9,10.45.54-10.45h10.45L255,165.14Z" style="fill:#fff;opacity:0.25"></path><polygon points="239.56 111.18 241.47 113.2 223.22 130.55 212.5 119.24 198.61 132.44 187.51 152.53 176.79 141.22 165 162.58 164.73 167.72 167.3 167.72 177.65 148.99 188.36 160.3 202.25 135.16 212.16 125.75 222.88 137.05 244.56 116.45 246.47 118.47 246.85 111.18 239.56 111.18" style="opacity:0.1"></polygon><polygon points="239.69 108.88 241.59 110.9 223.34 128.25 212.62 116.94 198.73 130.14 187.63 150.23 176.91 138.93 165.12 160.28 164.85 165.43 167.42 165.43 177.77 146.69 188.48 158 202.37 132.86 212.28 123.44 223 134.75 244.68 114.15 246.59 116.17 246.97 108.88 239.69 108.88" style="fill:#fff"></polygon><path d="M206.61,186.48l-3.2,61.1a5.59,5.59,0,0,0,5.64,5.95h80.76a6.34,6.34,0,0,0,6.26-5.95l3.21-61.1a5.6,5.6,0,0,0-5.65-5.95H212.88A6.35,6.35,0,0,0,206.61,186.48Z" style="fill:#0F4B8F"></path><path d="M206.61,186.48l-3.2,61.1a5.59,5.59,0,0,0,5.64,5.95h80.76a6.34,6.34,0,0,0,6.26-5.95l3.21-61.1a5.6,5.6,0,0,0-5.65-5.95H212.88A6.35,6.35,0,0,0,206.61,186.48Z" style="fill:#fff;opacity:0.5"></path><path d="M295.63,180.53h-2a5.6,5.6,0,0,1,5.65,5.95l-3.21,61.1a6.34,6.34,0,0,1-6.26,5.95h2a6.34,6.34,0,0,0,6.26-5.95l3.21-61.1A5.6,5.6,0,0,0,295.63,180.53Z" style="fill:#0F4B8F"></path><path d="M213.32,187.28l-3.12,59.5h79.17l3.11-59.5Zm78.16,9.58H282.4l.47-9.08H292Zm-40.66,20.67-.47,8.83h-8.83l.46-8.83Zm-8.79-1,.47-8.83h8.83l-.46,8.83Zm9.79,1h8.83l-.46,8.83h-8.84Zm.05-1,.46-8.83h8.83l-.46,8.83Zm10.29-8.83H271l-.47,8.83H261.7Zm.06-1,.46-8.84h8.83l-.46,8.84Zm-1,0h-8.84l.47-8.84h8.83Zm-9.84,0h-8.83l.46-8.84h8.84Zm-9.83,0h-8.83l.46-8.84H242Zm-.05,1-.47,8.83H232.2l.46-8.83Zm-10.3,8.83h-8.83l.46-8.83h8.83Zm0,1-.46,8.83h-8.84l.47-8.83Zm1,0H241l-.46,8.83h-8.83Zm8.32,9.83L240,236.2h-8.83l.46-8.84Zm1,0h8.83l-.46,8.84H241Zm9.83,0h8.83l-.46,8.84h-8.83Zm9.83,0H270l-.47,8.84h-8.83Zm.06-1,.46-8.83h8.83l-.46,8.83Zm10.29-8.83h8.84l-.47,8.83H271Zm0-1,.47-8.83h8.83l-.46,8.83Zm.52-9.83.46-8.84h8.84l-.47,8.84Zm.52-9.84.47-9.08h8.83l-.47,9.08Zm-1,0h-8.84l.48-9.08H272Zm-9.84,0H252.9l.47-9.08h8.84Zm-9.83,0h-8.83l.47-9.08h8.83Zm-9.83,0h-8.84l.48-9.08h8.83Zm-9.84,0H223.4l.47-9.08h8.84Zm0,1-.46,8.84h-8.84l.47-8.84Zm-10.3,8.84H212.8l.46-8.84h9.09Zm0,1-.46,8.83h-9.09l.47-8.83Zm-.51,9.83-.47,8.83h-9.08l.46-8.83Zm-.52,9.83-.46,8.84h-9.09l.47-8.84Zm1,0h8.83l-.46,8.84h-8.83Zm8.32,9.84-.48,9.08h-8.83l.47-9.08Zm1,0H240l-.47,9.08h-8.84Zm9.83,0h8.83l-.47,9.08h-8.83Zm9.83,0h8.84l-.48,9.08h-8.83Zm9.84,0h8.83l-.47,9.08h-8.84Zm9.83,0h8.83l-.47,9.08H270Zm.05-1,.47-8.84h8.83l-.46,8.84Zm10.3-8.84h9.08l-.46,8.84h-9.08Zm.05-1,.47-8.83h9.08l-.46,8.83Zm.52-9.83.46-8.83h9.08l-.46,8.83Zm.51-9.83.47-8.84h9.08L291,206.7Zm-59-18.92-.47,9.08h-9.08l.47-9.08ZM211.2,237.2h9.08l-.47,9.08h-9.08Zm68.61,9.08.47-9.08h9.09l-.48,9.08Z" style="fill:#0F4B8F"></path><path d="M213.32,187.28l-3.12,59.5h79.17l3.11-59.5Zm78.16,9.58H282.4l.47-9.08H292Zm-40.66,20.67-.47,8.83h-8.83l.46-8.83Zm-8.79-1,.47-8.83h8.83l-.46,8.83Zm9.79,1h8.83l-.46,8.83h-8.84Zm.05-1,.46-8.83h8.83l-.46,8.83Zm10.29-8.83H271l-.47,8.83H261.7Zm.06-1,.46-8.84h8.83l-.46,8.84Zm-1,0h-8.84l.47-8.84h8.83Zm-9.84,0h-8.83l.46-8.84h8.84Zm-9.83,0h-8.83l.46-8.84H242Zm-.05,1-.47,8.83H232.2l.46-8.83Zm-10.3,8.83h-8.83l.46-8.83h8.83Zm0,1-.46,8.83h-8.84l.47-8.83Zm1,0H241l-.46,8.83h-8.83Zm8.32,9.83L240,236.2h-8.83l.46-8.84Zm1,0h8.83l-.46,8.84H241Zm9.83,0h8.83l-.46,8.84h-8.83Zm9.83,0H270l-.47,8.84h-8.83Zm.06-1,.46-8.83h8.83l-.46,8.83Zm10.29-8.83h8.84l-.47,8.83H271Zm0-1,.47-8.83h8.83l-.46,8.83Zm.52-9.83.46-8.84h8.84l-.47,8.84Zm.52-9.84.47-9.08h8.83l-.47,9.08Zm-1,0h-8.84l.48-9.08H272Zm-9.84,0H252.9l.47-9.08h8.84Zm-9.83,0h-8.83l.47-9.08h8.83Zm-9.83,0h-8.84l.48-9.08h8.83Zm-9.84,0H223.4l.47-9.08h8.84Zm0,1-.46,8.84h-8.84l.47-8.84Zm-10.3,8.84H212.8l.46-8.84h9.09Zm0,1-.46,8.83h-9.09l.47-8.83Zm-.51,9.83-.47,8.83h-9.08l.46-8.83Zm-.52,9.83-.46,8.84h-9.09l.47-8.84Zm1,0h8.83l-.46,8.84h-8.83Zm8.32,9.84-.48,9.08h-8.83l.47-9.08Zm1,0H240l-.47,9.08h-8.84Zm9.83,0h8.83l-.47,9.08h-8.83Zm9.83,0h8.84l-.48,9.08h-8.83Zm9.84,0h8.83l-.47,9.08h-8.84Zm9.83,0h8.83l-.47,9.08H270Zm.05-1,.47-8.84h8.83l-.46,8.84Zm10.3-8.84h9.08l-.46,8.84h-9.08Zm.05-1,.47-8.83h9.08l-.46,8.83Zm.52-9.83.46-8.83h9.08l-.46,8.83Zm.51-9.83.47-8.84h9.08L291,206.7Zm-59-18.92-.47,9.08h-9.08l.47-9.08ZM211.2,237.2h9.08l-.47,9.08h-9.08Zm68.61,9.08.47-9.08h9.09l-.48,9.08Z" style="fill:#fff;opacity:0.25"></path><g style="opacity:0.1"><polygon points="220.7 248.28 216.01 248.28 217.06 228.2 221.76 228.2 220.7 248.28"></polygon><polygon points="230.99 240.45 226.29 240.45 227.75 212.7 232.44 212.7 230.99 240.45"></polygon><polygon points="241.35 231.26 236.65 231.26 238 205.45 242.7 205.45 241.35 231.26"></polygon><polygon points="251 235.45 246.31 235.45 247.75 207.95 252.44 207.95 251 235.45"></polygon><polygon points="261.24 228.57 256.54 228.57 258.01 200.56 262.7 200.56 261.24 228.57"></polygon><polygon points="270.82 234.08 266.13 234.08 267.63 205.45 272.32 205.45 270.82 234.08"></polygon><polygon points="281.09 226.57 276.4 226.57 278.02 195.68 282.71 195.68 281.09 226.57"></polygon><polygon points="291.22 221.7 286.53 221.7 288.23 189.28 292.92 189.28 291.22 221.7"></polygon></g><polygon points="219.81 246.28 215.11 246.28 216.17 226.2 220.86 226.2 219.81 246.28" style="fill:#fff"></polygon><polygon points="230.09 238.45 225.4 238.45 226.85 210.7 231.55 210.7 230.09 238.45" style="fill:#fff"></polygon><polygon points="240.45 229.26 235.76 229.26 237.11 203.45 241.8 203.45 240.45 229.26" style="fill:#fff"></polygon><polygon points="250.11 233.45 245.41 233.45 246.85 205.95 251.55 205.95 250.11 233.45" style="fill:#fff"></polygon><polygon points="260.34 226.57 255.65 226.57 257.12 198.56 261.81 198.56 260.34 226.57" style="fill:#fff"></polygon><polygon points="269.93 232.08 265.23 232.08 266.73 203.45 271.43 203.45 269.93 232.08" style="fill:#fff"></polygon><polygon points="280.2 224.57 275.5 224.57 277.12 193.68 281.82 193.68 280.2 224.57" style="fill:#fff"></polygon><polygon points="290.33 219.7 285.63 219.7 287.33 187.28 292.03 187.28 290.33 219.7" style="fill:#fff"></polygon><path d="M331.89,104.63l-1.08,20.65a1.89,1.89,0,0,0,1.91,2H354.6a2.15,2.15,0,0,0,2.12-2l1.08-20.65a1.88,1.88,0,0,0-1.9-2H334A2.15,2.15,0,0,0,331.89,104.63Z" style="fill:#0F4B8F"></path><path d="M331.89,104.63l-1.08,20.65a1.89,1.89,0,0,0,1.91,2H354.6a2.15,2.15,0,0,0,2.12-2l1.08-20.65a1.88,1.88,0,0,0-1.9-2H334A2.15,2.15,0,0,0,331.89,104.63Z" style="fill:#fff;opacity:0.6000000000000001"></path><path d="M357.5,102.62h-1.6a1.88,1.88,0,0,1,1.9,2l-1.08,20.65a2.15,2.15,0,0,1-2.12,2h1.6a2.15,2.15,0,0,0,2.12-2l1.08-20.65A1.88,1.88,0,0,0,357.5,102.62Z" style="fill:#0F4B8F"></path><path d="M357.5,102.62h-1.6a1.88,1.88,0,0,1,1.9,2l-1.08,20.65a2.15,2.15,0,0,1-2.12,2h1.6a2.15,2.15,0,0,0,2.12-2l1.08-20.65A1.88,1.88,0,0,0,357.5,102.62Z" style="fill:#fff;opacity:0.2"></path><path d="M336.87,110.88a3.58,3.58,0,0,1,3.68-3.59,3.53,3.53,0,0,1,3.65,3.59,3.67,3.67,0,0,1-7.33,0Zm11.3-1.39,1.4.8L340,120.87l-1.4-.82Zm-6.5,1.39a1.13,1.13,0,1,0-1.14,1.16A1.14,1.14,0,0,0,341.67,110.88Zm2.74,8.16a3.67,3.67,0,1,1,3.68,3.59A3.59,3.59,0,0,1,344.41,119Zm4.8,0a1.13,1.13,0,1,0-2.26,0,1.11,1.11,0,0,0,1.12,1.16A1.14,1.14,0,0,0,349.21,119Z" style="fill:#0F4B8F"></path><path d="M274.31,93.85l-.81,15.35a1.41,1.41,0,0,0,1.42,1.5H291.2a1.59,1.59,0,0,0,1.57-1.5l.81-15.35a1.41,1.41,0,0,0-1.42-1.5H275.88A1.59,1.59,0,0,0,274.31,93.85Z" style="fill:#0F4B8F"></path><path d="M274.31,93.85l-.81,15.35a1.41,1.41,0,0,0,1.42,1.5H291.2a1.59,1.59,0,0,0,1.57-1.5l.81-15.35a1.41,1.41,0,0,0-1.42-1.5H275.88A1.59,1.59,0,0,0,274.31,93.85Z" style="fill:#fff;opacity:0.6000000000000001"></path><path d="M293.35,92.35h-1.19a1.41,1.41,0,0,1,1.42,1.5l-.81,15.35a1.59,1.59,0,0,1-1.57,1.5h1.19a1.59,1.59,0,0,0,1.57-1.5l.81-15.35A1.41,1.41,0,0,0,293.35,92.35Z" style="fill:#0F4B8F"></path><path d="M293.35,92.35h-1.19a1.41,1.41,0,0,1,1.42,1.5l-.81,15.35a1.59,1.59,0,0,1-1.57,1.5h1.19a1.59,1.59,0,0,0,1.57-1.5l.81-15.35A1.41,1.41,0,0,0,293.35,92.35Z" style="fill:#fff;opacity:0.2"></path><path d="M289.28,103.27h-4v4h-3.5v-4h-4V99.78h4v-4h3.5v4h4Z" style="fill:#0F4B8F"></path><path d="M305.74,206.18l-.8,15.36a1.41,1.41,0,0,0,1.42,1.49h16.28a1.59,1.59,0,0,0,1.57-1.49l.81-15.36a1.41,1.41,0,0,0-1.42-1.5H307.32A1.6,1.6,0,0,0,305.74,206.18Z" style="fill:#0F4B8F"></path><path d="M305.74,206.18l-.8,15.36a1.41,1.41,0,0,0,1.42,1.49h16.28a1.59,1.59,0,0,0,1.57-1.49l.81-15.36a1.41,1.41,0,0,0-1.42-1.5H307.32A1.6,1.6,0,0,0,305.74,206.18Z" style="fill:#fff;opacity:0.6000000000000001"></path><path d="M324.79,204.68H323.6a1.41,1.41,0,0,1,1.42,1.5l-.81,15.36a1.59,1.59,0,0,1-1.57,1.49h1.19a1.59,1.59,0,0,0,1.57-1.49l.81-15.36A1.41,1.41,0,0,0,324.79,204.68Z" style="fill:#0F4B8F"></path><path d="M324.79,204.68H323.6a1.41,1.41,0,0,1,1.42,1.5l-.81,15.36a1.59,1.59,0,0,1-1.57,1.49h1.19a1.59,1.59,0,0,0,1.57-1.49l.81-15.36A1.41,1.41,0,0,0,324.79,204.68Z" style="fill:#fff;opacity:0.2"></path><path d="M320.12,215.6H309.83v-3.49h10.29Z" style="fill:#0F4B8F"></path><path d="M200.44,197.86l-1.09,20.65a1.9,1.9,0,0,0,1.91,2h21.89a2.13,2.13,0,0,0,2.11-2l1.09-20.65a1.9,1.9,0,0,0-1.91-2H202.55A2.13,2.13,0,0,0,200.44,197.86Z" style="fill:#0F4B8F"></path><path d="M200.44,197.86l-1.09,20.65a1.9,1.9,0,0,0,1.91,2h21.89a2.13,2.13,0,0,0,2.11-2l1.09-20.65a1.9,1.9,0,0,0-1.91-2H202.55A2.13,2.13,0,0,0,200.44,197.86Z" style="fill:#fff;opacity:0.6000000000000001"></path><path d="M226,195.85h-1.6a1.9,1.9,0,0,1,1.91,2l-1.09,20.65a2.13,2.13,0,0,1-2.11,2h1.6a2.13,2.13,0,0,0,2.11-2L228,197.86A1.9,1.9,0,0,0,226,195.85Z" style="fill:#0F4B8F"></path><path d="M226,195.85h-1.6a1.9,1.9,0,0,1,1.91,2l-1.09,20.65a2.13,2.13,0,0,1-2.11,2h1.6a2.13,2.13,0,0,0,2.11-2L228,197.86A1.9,1.9,0,0,0,226,195.85Z" style="fill:#fff;opacity:0.2"></path><path d="M213.8,215.17v1.7h-1.36v-1.68a4.85,4.85,0,0,1-4.49-3.12l2.66-1.55a2.42,2.42,0,0,0,1.83,1.62v-2.66c-.07,0-.17-.06-.25-.1-1.68-.67-3.68-1.62-3.68-4.2a4,4,0,0,1,3.93-4V199.5h1.36v1.72a4.59,4.59,0,0,1,3.8,2.8L215,205.54a1.89,1.89,0,0,0-1.19-1.25v2.6c1.68.72,3.95,1.36,3.95,4.17C217.75,213.48,216.09,214.9,213.8,215.17Zm-1.36-8.91v-2a1,1,0,0,0-.84,1C211.6,205.56,211.77,205.87,212.44,206.26Zm2.22,4.84c0-.48-.28-.77-.86-1.06v2.06A1,1,0,0,0,214.66,211.1Z" style="fill:#0F4B8F"></path><path d="M223.43,85.53h15.68c.77,0,.88-1.2.1-1.2H223.53c-.77,0-.88,1.2-.1,1.2Z" style="fill:#0F4B8F"></path><path d="M244.85,85.53h4.51c.77,0,.88-1.2.1-1.2H245c-.78,0-.88,1.2-.11,1.2Z" style="fill:#0F4B8F"></path><path d="M275.75,258.26H260.07c-.78,0-.88,1.2-.11,1.2h15.68c.77,0,.88-1.2.11-1.2Z" style="fill:#0F4B8F"></path><path d="M254.32,258.26h-4.5c-.78,0-.88,1.2-.11,1.2h4.51c.77,0,.87-1.2.1-1.2Z" style="fill:#0F4B8F"></path></g><g id="freepik--character-2--inject-92"><polygon points="322.26 399.44 321.17 407.74 312.21 407.27 312.79 398.11 322.26 399.44" style="fill:#fab27b"></polygon><path d="M307.7,407.62c-1.16,0-2.36-.26-2.74-.76a.84.84,0,0,1,0-1,1.2,1.2,0,0,1,.71-.51c1.57-.39,4.8,1.54,5,1.62a.22.22,0,0,1,.1.24.21.21,0,0,1-.18.17A15.39,15.39,0,0,1,307.7,407.62Zm-1.45-1.85a1.58,1.58,0,0,0-.43.05.65.65,0,0,0-.44.3c-.17.27-.11.41-.05.48.42.62,2.79.68,4.53.5A10.15,10.15,0,0,0,306.25,405.77Z" style="fill:#0F4B8F"></path><path d="M310.54,407.41a.1.1,0,0,1-.09,0c-1.11-.52-3.32-2.6-3.1-3.65,0-.25.22-.56.83-.6a1.61,1.61,0,0,1,1.23.4c1.18,1,1.38,3.54,1.39,3.65a.25.25,0,0,1-.1.2A.22.22,0,0,1,310.54,407.41Zm-2.22-3.84h-.12c-.4,0-.43.18-.45.24-.07.63,1.38,2.25,2.52,3a5.28,5.28,0,0,0-1.18-2.9,1.18,1.18,0,0,0-.77-.29Z" style="fill:#0F4B8F"></path><path d="M311.56,406.12l10.23.2a.81.81,0,0,1,.79.66l1.69,8.36a1.37,1.37,0,0,1-1.35,1.65c-3.68-.14-7-.4-11.55-.48-5.42-.11-4.06.57-10.43.53-3.84,0-4.46-4.4-2.83-4.58,7.47-.79,8.29-3,11.21-5.64A3.3,3.3,0,0,1,311.56,406.12Z" style="fill:#263238"></path><polygon points="312.49 402.93 321.81 402.93 322.26 399.44 312.79 398.11 312.49 402.93" style="opacity:0.2"></polygon><polygon points="314.49 332.07 310.78 397.05 324.46 397.05 335.29 332.07 314.49 332.07" style="fill:#263238"></polygon><polygon points="314.49 332.07 310.78 397.05 324.46 397.05 335.29 332.07 314.49 332.07" style="opacity:0.30000000000000004"></polygon><path d="M325.63,396H309.15a3.56,3.56,0,0,0,.45,4l15.93.18S327,399.2,325.63,396Z" style="fill:#0F4B8F"></path><polygon points="366.75 230.75 366.15 237.91 377.19 237.48 376.5 228.85 366.75 230.75" style="fill:#fab27b"></polygon><path d="M385.62,239.61s7.43,0,14.32,22.88c1.09,3.6,5.09,14.16,5.09,14.16l-16.89-2L386.51,256Z" style="fill:#263238"></path><path d="M335.22,233.09c-.24-.69-5.59.55-11.94,2.78s-11.3,4.59-11.06,5.28,5.59-.55,11.94-2.77S335.46,233.79,335.22,233.09Z" style="fill:#0F4B8F"></path><path d="M327.28,234.55l1.7-.5.77,2.19-1.64.67Z" style="fill:#0F4B8F"></path><path d="M327.28,234.55l1.7-.5.77,2.19-1.64.67Z" style="fill:#fff;opacity:0.5"></path><path d="M333.42,232.66c.46-1.32-5.23.38-5.56.5s-.58-.5-.18-.63,7.32-2.42,6.37.3c-.13.39-.77.23-.63-.17Z" style="fill:#0F4B8F"></path><g style="opacity:0.2"><path d="M333.42,232.66c.46-1.32-5.23.38-5.56.5s-.58-.5-.18-.63,7.32-2.42,6.37.3c-.13.39-.77.23-.63-.17Z"></path></g><path d="M326.38,260.83l-2.32-10.29,3.29-5.51a2.55,2.55,0,0,0,.35-1.57l-.2-1.86a2.62,2.62,0,0,1,.15-1.18l.43-1.11a2.54,2.54,0,0,0-.73-2.85l-.63-.53a2.52,2.52,0,0,0-2.31-.52c-2.44.69-7.49,2.78-8.79,8.44l2,6.86,2.6,12.23Z" style="fill:#fab27b"></path><path d="M326.51,258.58v-4.72a14.57,14.57,0,0,0-8.71,5.36l1.45,4.63Z" style="fill:#0F4B8F"></path><path d="M359.48,241.06a10.21,10.21,0,0,1,8.15-5.17c5.63-.27,13.52,0,13.52,0l1.37,6.81Z" style="fill:#263238"></path><path d="M338.4,313.23s3.81-45.75,9-61.27,15-13.62,27-13.35,16.06,1.09,17.7,7.63-5.72,59.36-5.72,59.36l-1.66,13.07Z" style="fill:#263238"></path><path d="M338.4,313.23s3.81-45.75,9-61.27,15-13.62,27-13.35,16.06,1.09,17.7,7.63-5.72,59.36-5.72,59.36l-1.66,13.07Z" style="fill:#fff;opacity:0.1"></path><path d="M358.77,239.23c-4.21,0-8.72.67-18.74,22.17-1.86,4-3.6,7.23-5.8,7.71s-6.45-11.71-6.45-11.71-5.17-.36-9.53,5.45c0,0,2.36,21.42,13.89,21.42s21.58-14.7,25.08-22.15S368.47,239.28,358.77,239.23Z" style="fill:#263238"></path><path d="M358.77,239.23c-4.21,0-8.72.67-18.74,22.17-1.86,4-3.6,7.23-5.8,7.71s-6.45-11.71-6.45-11.71-5.17-.36-9.53,5.45c0,0,2.36,21.42,13.89,21.42s21.58-14.7,25.08-22.15S368.47,239.28,358.77,239.23Z" style="fill:#263238;opacity:0.1"></path><path d="M366.45,234.31a6.13,6.13,0,0,0,4.09-3l-1.51-1-2.28.44Z" style="opacity:0.2"></path><path d="M360.75,210.37c-.23.59-.11,1.18.28,1.33s.94-.21,1.15-.79.12-1.18-.28-1.33S361,209.79,360.75,210.37Z" style="fill:#263238"></path><path d="M361.35,212.59l-4.76,3.46a4.49,4.49,0,0,0,3.58,1.74Z" style="fill:#ed893e"></path><path d="M384.93,217c-2.78,7.91-3.79,11.33-9.13,14.34-7.56,2.5-17.41-.53-17.11-9.11.27-7.72,4.77-19.34,13.79-20.42a11.67,11.67,0,0,1,13,10A11.19,11.19,0,0,1,384.93,217Z" style="fill:#fab27b"></path><path d="M363.23,205.28a.33.33,0,0,1,.17.26,2.6,2.6,0,0,0,1.2,2.06.33.33,0,0,1,.14.44.35.35,0,0,1-.47.13,3.21,3.21,0,0,1-1.54-2.57.32.32,0,0,1,.31-.36h0A.43.43,0,0,1,363.23,205.28Z" style="fill:#263238"></path><path d="M366.15,217.84l-2.4-2.23a18.19,18.19,0,0,0,2.71-8.08s-7.31-7.89-.84-9.23c0,0,.52-9.1,6.53-3.59,0,0,5-7,6.48,1.12,0,0,4.33-1.55,1.78,2.5,0,0,9.54-.28,5.72,4.1,0,0,11.66,9.6,1.59,17.27,0,0,3.77,1.6,2.35,3.22s-3.3-1.49-3.3-1.49,3.23,6.67-4.08,7.12c0,0-.2,4.27-6,2.74,0,0-1.44-2-5.22-.93C371.47,230.36,372.11,223.94,366.15,217.84Z" style="fill:#263238"></path><path d="M367.76,214.19a6.48,6.48,0,0,0-3.35,3.7c-.74,2.15,1.21,3.36,3.35,2.88,1.94-.44,4.64-2.1,4.45-4.32S369.7,213.3,367.76,214.19Z" style="fill:#fab27b"></path><path d="M352.88,313s-49.79-8-56.06,12-16,48.73-16,48.73l11.68,5.7s19.1-35.34,20.52-41.61l27.08.29,9.69-12Z" style="fill:#263238"></path><polygon points="289.72 380.2 285.91 387.66 277.62 384.22 281.23 375.78 289.72 380.2" style="fill:#fab27b"></polygon><path d="M273.26,383c-1.09-.42-2.15-1-2.33-1.65a.83.83,0,0,1,.36-.89,1.12,1.12,0,0,1,.83-.24c1.62.15,4,3.05,4.13,3.18a.23.23,0,0,1,0,.25.25.25,0,0,1-.24.11A16.71,16.71,0,0,1,273.26,383Zm-.75-2.24a2.13,2.13,0,0,0-.42-.1.64.64,0,0,0-.52.14c-.25.2-.24.35-.21.44.19.72,2.4,1.57,4.11,2A10.49,10.49,0,0,0,272.51,380.8Z" style="fill:#0F4B8F"></path><path d="M276,383.79a.14.14,0,0,1-.08-.05c-.87-.86-2.26-3.55-1.71-4.47.12-.23.4-.45,1-.29a1.65,1.65,0,0,1,1,.79c.77,1.34.11,3.79.08,3.91a.22.22,0,0,1-.16.15A.26.26,0,0,1,276,383.79Zm-.8-4.37-.12-.05c-.38-.11-.46,0-.5.08-.28.57.54,2.58,1.39,3.63a5.2,5.2,0,0,0-.15-3.12,1.21,1.21,0,0,0-.62-.54Z" style="fill:#0F4B8F"></path><path d="M277.39,382.91l9.58,3.62a.8.8,0,0,1,.52.88l-1.21,8.45a1.37,1.37,0,0,1-1.54,1.17,1.28,1.28,0,0,1-.28-.07c-3.43-1.36-6.43-2.71-10.73-4.33-5.07-1.91-4-.82-10-3-3.61-1.3-2.72-5.64-1.12-5.26,7.3,1.75,8.82-.08,12.45-1.56A3.26,3.26,0,0,1,277.39,382.91Z" style="fill:#263238"></path><polygon points="287.78 383.99 289.72 380.2 281.23 375.78 279.49 379.86 287.78 383.99" style="opacity:0.2"></polygon><path d="M294.37,379.85l-14.54-7.76a3.57,3.57,0,0,0-1.51,3.78l14,7.64S294.1,383.31,294.37,379.85Z" style="fill:#0F4B8F"></path><path d="M396.68,415.82l-6.29-69.25a1.24,1.24,0,0,0-1.3-1.05h-2.52a1.21,1.21,0,0,0-1.3,1.26l8.8,69.25a1.25,1.25,0,0,0,1.3,1h0A1.21,1.21,0,0,0,396.68,415.82Z" style="fill:#0F4B8F"></path><path d="M352.79,416l8.8-69.25a1.21,1.21,0,0,0-1.3-1.26h-2.51a1.24,1.24,0,0,0-1.31,1.05l-6.29,69.25a1.21,1.21,0,0,0,1.31,1.22h0A1.25,1.25,0,0,0,352.79,416Z" style="fill:#0F4B8F"></path><path d="M368.27,415.82,362,346.57a1.24,1.24,0,0,0-1.31-1.05h-2.51a1.21,1.21,0,0,0-1.3,1.26L365.65,416a1.26,1.26,0,0,0,1.31,1h0A1.21,1.21,0,0,0,368.27,415.82Z" style="fill:#0F4B8F"></path><path d="M368.27,415.82,362,346.57a1.24,1.24,0,0,0-1.31-1.05h-2.51a1.21,1.21,0,0,0-1.3,1.26L365.65,416a1.26,1.26,0,0,0,1.31,1h0A1.21,1.21,0,0,0,368.27,415.82Z" style="fill:#fff;opacity:0.30000000000000004"></path><path d="M324.38,416l8.8-69.25a1.21,1.21,0,0,0-1.3-1.26h-2.52a1.24,1.24,0,0,0-1.3,1.05l-6.29,69.25a1.21,1.21,0,0,0,1.31,1.22h0A1.25,1.25,0,0,0,324.38,416Z" style="fill:#0F4B8F"></path><path d="M324.38,416l8.8-69.25a1.21,1.21,0,0,0-1.3-1.26h-2.52a1.24,1.24,0,0,0-1.3,1.05l-6.29,69.25a1.21,1.21,0,0,0,1.31,1.22h0A1.25,1.25,0,0,0,324.38,416Z" style="fill:#fff;opacity:0.30000000000000004"></path><path d="M322.87,341.9h72.71a0,0,0,0,1,0,0v.29a3.33,3.33,0,0,1-3.33,3.33h-66a3.33,3.33,0,0,1-3.33-3.33v-.29A0,0,0,0,1,322.87,341.9Z" style="fill:#0F4B8F"></path><path d="M322.87,341.9h72.71a0,0,0,0,1,0,0v.29a3.33,3.33,0,0,1-3.33,3.33h-66a3.33,3.33,0,0,1-3.33-3.33v-.29A0,0,0,0,1,322.87,341.9Z" style="opacity:0.30000000000000004"></path><path d="M390.79,269.09h-6.43a24.83,24.83,0,0,0-23.59,17.09l-13,39.57a16.09,16.09,0,0,1-15.3,11.08H311.83a5.07,5.07,0,0,0-5.06,5.07h89.48a17.59,17.59,0,0,0,17.55-16.54l1.78-30A24.83,24.83,0,0,0,390.79,269.09Z" style="fill:#0F4B8F"></path></g><g id="freepik--character-1--inject-92"><path d="M107.24,293.81l1,13.73s-7.2,23.06-8,48.28c-.81,24.4-1,43.23-1,43.23l8.9.57,13.7-87.5,2.78-19.05Z" style="fill:#ffc3bd"></path><path d="M129.72,135.46s5.92-2.26,8.91,3.32c0,0-7-1.62-9.2,1.71Z" style="fill:#263238"></path><path d="M129.72,135.46s5.92-2.26,8.91,3.32c0,0-7-1.62-9.2,1.71Z" style="fill:#fff;opacity:0.1"></path><path d="M195.54,180.89l-3.86,3.94c-3.42.62-4,5.53-4,5.53-.78.47-6.55,5.25-8.28,6.42l3.31,3.79a71.87,71.87,0,0,1,7.18-6.5s8.71-3.94,10.26-5.54,0-7.14,0-7.14Z" style="fill:#ffc3bd"></path><path d="M184.18,191.6c-5.8,3.5-14.38,8.89-14.38,8.89a190.38,190.38,0,0,0-12.37-14.75,38.6,38.6,0,0,0-9.38-7.73v16.5c4,4.09,16.55,16.48,21.88,16.48,4.39,0,13.28-8.66,18.4-14.05Z" style="fill:#263238"></path><path d="M157,203c-2.47-5.11-5.73-15.61-5.73-15.61L149,191.49l.86,4.82C151.71,198.16,154.25,200.61,157,203Z" style="opacity:0.4"></path><path d="M136.93,296.86l2.5,11.5s-2.75,27.5,1.75,51.5,5.25,38.75,5.25,38.75l10-1-3-86.75.25-19.25Z" style="fill:#ffc3bd"></path><path d="M107.71,184.83a342.19,342.19,0,0,0,6.47,44.78s-15.25,28.25-13.5,69c0,0,15.5,6,56.75,0l-5.25-69.25s1.75-44.75-3-49.75c-4.21-4.43-22.55-10.23-36.59-3.32A8.83,8.83,0,0,0,107.71,184.83Z" style="fill:#0F4B8F"></path><path d="M127.18,228.11s12.25,2.13,20.87,0v5.25s-6.41.93-20.87,0Z" style="fill:#0F4B8F"></path><path d="M127.18,228.11s12.25,2.13,20.87,0v5.25s-6.41.93-20.87,0Z" style="opacity:0.5"></path><path d="M135.43,229.43a2.47,2.47,0,0,1,2.17-2.37c1.5-.28,5.64-.2,5.7,3s.69,5.5-2.43,5.69-5.56.42-5.47-2l5.65,0L141,229Z" style="fill:#fff"></path><path d="M120,157.07c1.62,4.63,3.74,12.75,2,17.44a2.56,2.56,0,0,0,1,3.05c3.53,2.55,9.27,4.61,13.59,4.15,5.55-.6,4.1-4.53,2.69-6.68-.38-.58-1-1.39-1.65-1.51-5.45-.92-6.48-5-6.06-9.15Z" style="fill:#ffc3bd"></path><path d="M124.75,160.07l6.86,4.28a17.26,17.26,0,0,0,0,3.05,8.43,8.43,0,0,1-6.86-3.9C124,162,124.19,160.34,124.75,160.07Z" style="opacity:0.2;isolation:isolate"></path><path d="M117.89,149.58c2,7.12,2.81,11.39,7.25,14.3,6.69,4.4,14.89-.85,15-8.41.14-6.85-3.15-17.32-10.84-18.67a10.09,10.09,0,0,0-11.46,12.78Z" style="fill:#ffc3bd"></path><path d="M133.86,148.55a21.28,21.28,0,0,0,3.9,4.41,3.5,3.5,0,0,1-2.7,1.14Z" style="fill:#ed847e"></path><path d="M126.76,147a.28.28,0,0,1-.18,0,.36.36,0,0,1-.18-.47,3.54,3.54,0,0,1,2.51-2,.36.36,0,0,1,.4.3.35.35,0,0,1-.3.4h0a2.81,2.81,0,0,0-2,1.63A.34.34,0,0,1,126.76,147Z" style="fill:#263238"></path><path d="M138,143.6a.32.32,0,0,1-.34,0,2.8,2.8,0,0,0-2.52-.19.36.36,0,0,1-.48-.16.34.34,0,0,1,.16-.47A3.5,3.5,0,0,1,138,143a.33.33,0,0,1,.13.46h0A.35.35,0,0,1,138,143.6Z" style="fill:#263238"></path><path d="M122.3,172.2l14.13,9.16V173.1l2.36.54a1.34,1.34,0,0,1,1,1A54.88,54.88,0,0,1,141.11,186s-1.18-5.13-4.43-3.13c0,0-3.47-2.87-6.22,2,0,0-6.66-2.87-8.16-6.37s-2.5-5.39-2.5-5.39Z" style="fill:#fff"></path><path d="M121.26,172.2a319.65,319.65,0,0,1,7.23,46.33c1.61,23.17,1.94,30.17-7.23,29.17s-16.66-2.17-15.33-5.5,6.33-10.84,6-14.67-3.5-33.66-3.86-38.18S104.93,175,121.26,172.2Z" style="fill:#263238"></path><path d="M128.49,218.53c-.14-2.05-.32-4.1-.52-6.13l-17.06,5c.27,2.57.51,4.88.69,6.66L123,221l-.13-.86,5.69-.85C128.52,219,128.51,218.78,128.49,218.53Z" style="opacity:0.30000000000000004"></path><path d="M137.6,173.1s7.33,14.35,7.83,37.89-.54,36.07,3.83,36.8,5.34-2.26,5.34-2.26-1.3-12.79-1.3-15.92,1.38-22,0-35.5,0-12.66-2.27-14.17A62.19,62.19,0,0,0,137.6,173.1Z" style="fill:#263238"></path><path d="M110.64,214.78,115.15,189s-3.72,3.78-6.48,6.67C109.2,200.9,110,208.35,110.64,214.78Z" style="opacity:0.4"></path><path d="M133.54,204.33c-1.59.34-10.06,5.75-10.06,5.75s-4.6,1.39-6.72,1.78L119,217c1.84-.82,5.83-2,5.83-2s3.39-.11,4.52-.34c0,0,3.27.9,5.19-.34s3-4.29,3-4.29S135.12,204,133.54,204.33Z" style="fill:#ffc3bd"></path><path d="M118.8,210.79c-4.52.84-10.12.94-10.12.2,0-1.13,4.29-15.3,6.62-20.5,1.49-3.33,6.13-11.63,1-14.54-2.72-1.55-11.23-.47-15.23,17.16s-2.16,24,1.71,26.75c4.07,2.89,13.26-.53,18.25-2.75Z" style="fill:#263238"></path><path d="M129.34,148.73c.12.6.53,1,.92.94s.61-.62.49-1.22-.53-1-.91-.93S129.23,148.13,129.34,148.73Z" style="fill:#263238"></path><path d="M136.07,147.41c.12.59.53,1,.91.94s.61-.62.5-1.22-.53-1-.91-.94S136,146.81,136.07,147.41Z" style="fill:#263238"></path><path d="M136.4,146.26l1.35-.69S137.23,146.83,136.4,146.26Z" style="fill:#263238"></path><path d="M129.67,147.58l1.35-.69S130.5,148.15,129.67,147.58Z" style="fill:#263238"></path><path d="M133.44,157.47a7.66,7.66,0,0,0,1.26-.11.23.23,0,0,0,.18-.26h0a.23.23,0,0,0-.25-.18,6,6,0,0,1-5.19-1.45.23.23,0,0,0-.32,0,.22.22,0,0,0,0,.32A6.25,6.25,0,0,0,133.44,157.47Z" style="fill:#263238"></path><path d="M120.42,156s1.71-.83,1.67-4.63a11,11,0,0,0,.26-10.93s8.25-.64,10-3.79,6.12-3.28,6.12-3.28-1-3.75-8.42-2.16a11,11,0,0,1,5.76-1.84s-4.49-4.16-11.18-.46a4.74,4.74,0,0,1,3.21-2.62S119,124.2,112,132.68c-5.5,6.66-1,9.27-1,9.27s-4.48-.69-3.54,5.36l1.81-2.85s-1.44,3.84,2.81,8.09S120.42,156,120.42,156Z" style="fill:#263238"></path><path d="M115.82,157.07a7,7,0,0,0,4.93,2.11c2.47,0,3-2.36,1.82-4.34-1.11-1.79-3.73-3.94-5.94-3S114.23,155.42,115.82,157.07Z" style="fill:#ffc3bd"></path><path d="M109,397.23l-10.6.21a.85.85,0,0,0-.82.68l-1.74,8.67a1.42,1.42,0,0,0,1.09,1.68l.3,0c3.82-.14,7.22-.42,12-.51,5.61-.1,4.2.6,10.8.56,4,0,4.62-4.56,2.93-4.75-7.74-.82-8.59-3.13-11.62-5.84A3.39,3.39,0,0,0,109,397.23Z" style="fill:#263238"></path><path d="M156.62,397.23l-10.6.21a.85.85,0,0,0-.82.68l-1.75,8.67a1.42,1.42,0,0,0,1.1,1.68l.3,0c3.82-.14,7.22-.42,12-.51,5.62-.1,4.21.6,10.81.56,4,0,4.62-4.56,2.93-4.75-7.74-.82-8.59-3.13-11.62-5.84A3.41,3.41,0,0,0,156.62,397.23Z" style="fill:#263238"></path></g></svg>