<svg width="147" height="130" viewBox="0 0 147 130" fill="none" xmlns="http://www.w3.org/2000/svg">
<path d="M137.144 1H10.8563C5.71035 1 1.5 5.22113 1.5 10.3803V109.62C1.5 114.779 5.71035 119 10.8563 119H137.144C142.29 119 146.5 114.779 146.5 109.62V10.3804C146.5 5.22121 142.29 1.00008 137.144 1.00008L137.144 1ZM142.025 105.59C142.025 110.749 137.815 114.97 132.669 114.97H14.6479C9.50188 114.97 5.29154 110.749 5.29154 105.59V14.2956C5.29154 9.13639 9.50188 4.91526 14.6479 4.91526H132.669C137.815 4.91526 142.025 9.13639 142.025 14.2956V105.59V105.59Z" fill="white"/>
<path d="M136.733 118.999H10.267C4.88154 118.999 0.5 114.605 0.5 109.204V9.79489C0.5 4.39399 4.88146 0 10.267 0H136.733C142.119 0 146.5 4.39399 146.5 9.79489V109.204C146.5 114.605 142.119 118.999 136.733 118.999ZM10.267 0.797052C5.3197 0.797052 1.29478 4.83348 1.29478 9.79489V109.204C1.29478 114.166 5.3197 118.202 10.267 118.202H136.733C141.68 118.202 145.705 114.166 145.705 109.204V9.79489C145.705 4.8334 141.68 0.797052 136.733 0.797052H10.267ZM132.252 114.963H14.0639C8.67844 114.963 4.29698 110.569 4.29698 105.168V13.7167C4.29698 8.3158 8.67844 3.92181 14.0639 3.92181H132.252C137.637 3.92181 142.019 8.3158 142.019 13.7167V105.168C142.019 110.569 137.637 114.963 132.252 114.963ZM14.0639 4.71887C9.11668 4.71887 5.09176 8.7553 5.09176 13.7167V105.168C5.09176 110.129 9.11668 114.166 14.0639 114.166H132.252C137.199 114.166 141.224 110.129 141.224 105.168V13.7167C141.224 8.75522 137.199 4.71887 132.252 4.71887H14.0639Z" fill="#FF450D"/>
<path d="M133.125 5H14.8746C9.69713 5 5.5 9.1976 5.5 14.3756V105.624C5.5 110.802 9.69713 115 14.8746 115H133.125C138.303 115 142.5 110.802 142.5 105.624V14.3756C142.5 9.1976 138.303 5 133.125 5Z" fill="white"/>
<path d="M132.713 114.999H14.2867C8.8903 114.999 4.5 110.607 4.5 105.208V13.7912C4.5 8.39235 8.8903 4 14.2867 4H132.713C138.11 4 142.5 8.39235 142.5 13.7912V105.208C142.5 110.607 138.11 115 132.713 115V114.999ZM14.2867 4.79676C9.32943 4.79676 5.29638 8.83168 5.29638 13.7912V105.208C5.29638 110.168 9.32943 114.203 14.2867 114.203H132.713C137.671 114.203 141.704 110.168 141.704 105.208V13.7912C141.704 8.8316 137.671 4.79676 132.713 4.79676H14.2867Z" fill="#FF450D"/>
<path d="M133.125 5H14.8746C9.69713 5 5.5 9.1976 5.5 14.3756V105.624C5.5 110.802 9.69713 115 14.8746 115H133.125C138.303 115 142.5 110.802 142.5 105.624V14.3756C142.5 9.1976 138.303 5 133.125 5Z" fill="white"/>
<path d="M132.713 114.999H14.2867C8.8903 114.999 4.5 110.607 4.5 105.208V13.7912C4.5 8.39235 8.8903 4 14.2867 4H132.713C138.11 4 142.5 8.39235 142.5 13.7912V105.208C142.5 110.607 138.11 115 132.713 115V114.999ZM14.2867 4.79676C9.32943 4.79676 5.29638 8.83168 5.29638 13.7912V105.208C5.29638 110.168 9.32943 114.203 14.2867 114.203H132.713C137.671 114.203 141.704 110.168 141.704 105.208V13.7912C141.704 8.8316 137.671 4.79676 132.713 4.79676H14.2867Z" fill="#FF450D"/>
<path d="M80.7369 15H16.2631C15.2894 15 14.5 15.7636 14.5 16.7055V33.2945C14.5 34.2364 15.2894 35 16.2631 35H80.7369C81.7106 35 82.5 34.2364 82.5 33.2945V16.7055C82.5 15.7636 81.7106 15 80.7369 15Z" fill="white"/>
<path d="M80.3299 34.9994H15.67C14.4735 34.9994 13.5 34.0504 13.5 32.8838V16.1157C13.5 14.9491 14.4735 14 15.67 14H80.33C81.5266 14 82.5 14.9491 82.5 16.1157V32.8838C82.5 34.0504 81.5266 34.9994 80.33 34.9994H80.3299ZM15.67 14.7836C14.9166 14.7836 14.3037 15.3811 14.3037 16.1157V32.8838C14.3037 33.6183 14.9166 34.2158 15.67 34.2158H80.33C81.0834 34.2158 81.6963 33.6183 81.6963 32.8838V16.1157C81.6963 15.3811 81.0834 14.7836 80.33 14.7836H15.67Z" fill="#FF450D"/>
<path d="M80.5568 42H47.4432C46.9223 42 46.5 42.4518 46.5 43.0092V49.9908C46.5 50.5482 46.9223 51 47.4432 51H80.5568C81.0777 51 81.5 50.5482 81.5 49.9908V43.0092C81.5 42.4518 81.0777 42 80.5568 42Z" fill="white"/>
<path d="M80.1558 50.9993H46.8442C46.103 50.9993 45.5 50.3476 45.5 49.5466V42.4526C45.5 41.6516 46.103 41 46.8442 41H80.1558C80.897 41 81.5 41.6516 81.5 42.4526V49.5466C81.5 50.3476 80.897 50.9993 80.1558 50.9993ZM46.8442 41.8545C46.539 41.8545 46.2907 42.1228 46.2907 42.4526V49.5466C46.2907 49.8765 46.539 50.1448 46.8442 50.1448H80.1558C80.4609 50.1448 80.7093 49.8765 80.7093 49.5466V42.4526C80.7093 42.1228 80.4609 41.8545 80.1558 41.8545H46.8442Z" fill="#FF450D"/>
<path d="M94.5 119V128.677C94.5 129.405 93.617 130 92.5376 130H50.4624C49.3831 130 48.5 129.405 48.5 128.677V119H94.5Z" fill="white"/>
<path d="M92.13 130H49.87C48.5411 130 47.5 129.229 47.5 128.244V118H94.5V128.244C94.5 129.229 93.459 130 92.13 130ZM48.2979 118.824V128.244C48.2979 128.685 48.9435 129.176 49.87 129.176H92.13C93.0565 129.176 93.7021 128.685 93.7021 128.244V118.824H48.298H48.2979Z" fill="#FF450D"/>
<path d="M38.5543 42H15.4457C14.9234 42 14.5 42.4518 14.5 43.0092V49.9908C14.5 50.5482 14.9234 51 15.4457 51H38.5543C39.0766 51 39.5 50.5482 39.5 49.9908V43.0092C39.5 42.4518 39.0766 42 38.5543 42Z" fill="white"/>
<path d="M38.1493 50.9994H14.8507C14.1059 50.9994 13.5 50.3477 13.5 49.5467V42.4526C13.5 41.6516 14.1059 41 14.8507 41H38.1493C38.8941 41 39.5 41.6516 39.5 42.4526V49.5467C39.5 50.3477 38.8941 50.9994 38.1493 50.9994ZM14.8507 41.8545C14.544 41.8545 14.2945 42.1228 14.2945 42.4526V49.5467C14.2945 49.8766 14.544 50.1449 14.8507 50.1449H38.1493C38.456 50.1449 38.7055 49.8766 38.7055 49.5467V42.4526C38.7055 42.1228 38.456 41.8545 38.1493 41.8545H14.8507Z" fill="#FF450D"/>
<path d="M31.1091 27.7043C31.1091 27.2523 30.9474 26.8716 30.6241 26.5621C30.3007 26.2527 29.7557 25.9726 28.9887 25.7221C27.9211 25.4029 27.1429 24.9865 26.6542 24.4732C26.1655 23.9599 25.9211 23.3078 25.9211 22.5169C25.9211 21.7113 26.1604 21.0505 26.6391 20.5347C27.1177 20.0189 27.7757 19.712 28.6128 19.6137V18H29.7331V19.6211C30.5752 19.7342 31.2305 20.0804 31.6992 20.66C32.1679 21.2397 32.4022 22.0331 32.4022 23.0401H31.0188C31.0188 22.3452 30.8508 21.7933 30.515 21.3842C30.1791 20.9752 29.7255 20.7706 29.1541 20.7706C28.5575 20.7706 28.1015 20.922 27.7857 21.2245C27.47 21.5272 27.3121 21.9491 27.3121 22.4905C27.3121 22.9925 27.4786 23.3923 27.8121 23.6901C28.1453 23.9878 28.6942 24.2584 29.4587 24.5021C30.223 24.7457 30.8196 25.0136 31.2481 25.3058C31.6767 25.5981 31.9924 25.9383 32.1955 26.3263C32.3985 26.7144 32.5 27.1689 32.5 27.6894C32.5 28.5197 32.2456 29.1878 31.7368 29.6937C31.2281 30.1996 30.515 30.4992 29.5977 30.5926V32H28.485V30.5926C27.5526 30.509 26.8221 30.1837 26.2933 29.6163C25.7644 29.0489 25.5 28.279 25.5 27.3063H26.8909C26.8909 27.9891 27.0739 28.5147 27.4398 28.8831C27.8057 29.2515 28.3244 29.4358 28.9962 29.4358C29.6528 29.4358 30.1691 29.2811 30.5451 28.9716C30.921 28.6622 31.109 28.2397 31.109 27.7043H31.1091Z" fill="#FF450D"/>
<path d="M69.7424 96C69.5438 96 69.3439 95.9434 69.1686 95.8258L37.393 74.5248L29.3455 80.4091L28.5 79.248L36.7724 73.1992C37.1223 72.9436 37.5992 72.9338 37.9592 73.175L69.658 94.4245L110.368 42L111.5 42.8827L70.5624 95.6005C70.3598 95.8614 70.0529 95.9999 69.7424 95.9999V96Z" fill="#FF450D"/>
<path d="M119.29 49C119.058 49 118.827 48.9334 118.624 48.7998L101.045 37.2223C100.635 36.9522 100.429 36.4659 100.522 35.9836C100.614 35.5012 100.985 35.1255 101.466 35.0265L116.045 32.0252C116.361 31.9601 116.684 32.0221 116.954 32.1999C117.224 32.3777 117.409 32.65 117.474 32.9666L120.475 47.5451C120.574 48.0262 120.375 48.5151 119.969 48.7907C119.763 48.9301 119.526 48.9998 119.29 48.9998V49ZM102.335 36.3317L118.933 47.2625L116.099 33.4982L102.335 36.3317Z" fill="#FF450D"/>
</svg>
