<svg width="33" height="32" viewBox="0 0 33 32" fill="none" xmlns="http://www.w3.org/2000/svg">
<path d="M30.5 16C30.5 23.728 24.235 30 16.5 30C8.765 30 2.5 23.728 2.5 16C2.5 8.265 8.765 2 16.5 2C24.235 2 30.5 8.265 30.5 16Z" fill="#333333"/>
<path d="M23.0621 12.4574C22.9857 12.502 21.1671 13.4425 21.1671 15.5279C21.2528 17.9061 23.4621 18.7401 23.5 18.7401C23.4621 18.7847 23.1665 19.8763 22.2907 21.0205C21.5956 22.0062 20.8242 23 19.6528 23C18.5385 23 18.1385 22.3431 16.8528 22.3431C15.472 22.3431 15.0813 23 14.0242 23C12.8528 23 12.0242 21.953 11.2913 20.9766C10.3391 19.6986 9.52978 17.6931 9.50121 15.7675C9.48195 14.7471 9.69189 13.744 10.2248 12.8921C10.977 11.7026 12.3198 10.8952 13.7863 10.8686C14.9099 10.8333 15.9099 11.5875 16.5956 11.5875C17.2528 11.5875 18.4814 10.8686 19.8714 10.8686C20.4714 10.8692 22.0714 11.0376 23.0621 12.4574ZM16.5006 10.6649C16.3006 9.73303 16.8528 8.80119 17.3671 8.20677C18.0242 7.48792 19.0621 7 19.9571 7C20.0143 7.93185 19.6522 8.84575 19.005 9.51136C18.4242 10.2302 17.4242 10.7714 16.5006 10.6649Z" fill="white"/>
</svg>
