<svg xmlns="http://www.w3.org/2000/svg" width="64" height="64" viewBox="0 0 64 64" fill="none">
<rect width="64" height="64" rx="32" fill="#3498DB" fill-opacity="0.2"/>
<path d="M41.75 19.25L44.75 22.25L22.25 44.75L19.25 41.75L41.75 19.25ZM24.5 20C26.99 20 29 22.01 29 24.5C29 26.99 26.99 29 24.5 29C22.01 29 20 26.99 20 24.5C20 22.01 22.01 20 24.5 20ZM39.5 35C41.99 35 44 37.01 44 39.5C44 41.99 41.99 44 39.5 44C37.01 44 35 41.99 35 39.5C35 37.01 37.01 35 39.5 35ZM24.5 23C23.675 23 23 23.675 23 24.5C23 25.325 23.675 26 24.5 26C25.325 26 26 25.325 26 24.5C26 23.675 25.325 23 24.5 23ZM39.5 38C38.675 38 38 38.675 38 39.5C38 40.325 38.675 41 39.5 41C40.325 41 41 40.325 41 39.5C41 38.675 40.325 38 39.5 38Z" fill="#3498DB"/>
</svg>
