<svg width="127" height="130" viewBox="0 0 127 130" fill="none" xmlns="http://www.w3.org/2000/svg">
<path d="M105.824 7H26.1756C20.0035 7 15 12.0214 15 18.2156V118.784C15 124.979 20.0035 130 26.1756 130H105.824C111.996 130 117 124.979 117 118.784V18.2156C117 12.0214 111.996 7 105.824 7Z" fill="white"/>
<path d="M105.424 130H25.5757C19.1929 130 14 124.791 14 118.388V17.612C14 11.2091 19.1929 6 25.5757 6H105.424C111.807 6 117 11.2091 117 17.612V118.388C117 124.791 111.807 130 105.424 130ZM25.5757 6.74648C19.6032 6.74648 14.7442 11.6208 14.7442 17.612V118.388C14.7442 124.379 19.6032 129.253 25.5757 129.253H105.424C111.396 129.253 116.256 124.379 116.256 118.388V17.612C116.256 11.6208 111.396 6.74648 105.424 6.74648H25.5757Z" fill="#FF450D"/>
<path d="M101.822 12H30.1779C24.0045 12 19 17.0516 19 23.2831V114.717C19 120.948 24.0045 126 30.1779 126H101.822C107.995 126 113 120.948 113 114.717V23.2831C113 17.0516 107.995 12 101.822 12Z" fill="white"/>
<path d="M101.419 126H29.5805C23.195 126 18 120.759 18 114.317V22.6833C18 16.2411 23.195 11 29.5805 11H101.419C107.805 11 113 16.2411 113 22.6833V114.317C113 120.759 107.805 126 101.419 126ZM29.5804 11.7511C23.6054 11.7511 18.7444 16.6552 18.7444 22.6833V114.317C18.7444 120.345 23.6054 125.249 29.5804 125.249H101.419C107.394 125.249 112.255 120.345 112.255 114.317V22.6833C112.255 16.6552 107.394 11.7511 101.419 11.7511H29.5804Z" fill="#FF450D"/>
<path d="M81.412 1H50.588C47.5018 1 45 3.56001 45 6.71795V12.2821C45 15.44 47.5018 18 50.588 18H81.412C84.4982 18 87 15.44 87 12.2821V6.71795C87 3.56001 84.4982 1 81.412 1Z" fill="white"/>
<path d="M81.0079 18H49.9921C46.6881 18 44 15.2281 44 11.821V6.17897C44 2.7719 46.6881 0 49.9921 0H81.0079C84.3119 0 87 2.7719 87 6.17897V11.821C87 15.2281 84.3119 18 81.0079 18ZM49.9921 0.76179C47.0954 0.76179 44.7388 3.1919 44.7388 6.17897V11.821C44.7388 14.8081 47.0954 17.2382 49.9921 17.2382H81.0079C83.9046 17.2382 86.2612 14.8081 86.2612 11.821V6.17897C86.2612 3.1919 83.9046 0.76179 81.0079 0.76179H49.9921Z" fill="#FF450D"/>
<path d="M99.0645 98H32.9355C30.7655 98 29 96.2016 29 93.9912V90.0088C29 87.7984 30.7655 86 32.9355 86H99.0645C101.234 86 103 87.7984 103 90.0088V93.9912C103 96.2016 101.234 98 99.0645 98ZM32.9355 86.7596C31.1766 86.7596 29.7457 88.2172 29.7457 90.0088V93.9912C29.7457 95.7828 31.1766 97.2404 32.9355 97.2404H99.0645C100.823 97.2404 102.254 95.7828 102.254 93.9912V90.0088C102.254 88.2172 100.823 86.7596 99.0645 86.7596H32.9355Z" fill="#FF450D"/>
<path d="M99.0645 115H32.9355C30.7655 115 29 113.202 29 110.991V107.009C29 104.798 30.7655 103 32.9355 103H99.0645C101.234 103 103 104.798 103 107.009V110.991C103 113.202 101.234 115 99.0645 115ZM32.9355 103.76C31.1766 103.76 29.7457 105.217 29.7457 107.009V110.991C29.7457 112.783 31.1766 114.24 32.9355 114.24H99.0645C100.823 114.24 102.254 112.783 102.254 110.991V107.009C102.254 105.217 100.823 103.76 99.0645 103.76H32.9355Z" fill="#FF450D"/>
<path d="M120.242 23H10.7584C7.02582 23 4 26.0314 4 29.7708V70.2292C4 73.9686 7.02582 77 10.7584 77H120.242C123.974 77 127 73.9686 127 70.2292V29.7708C127 26.0314 123.974 23 120.242 23Z" fill="white"/>
<path d="M119.892 77H10.1076C6.18849 77 3 73.7947 3 69.8548V29.1452C3 25.2054 6.18849 22 10.1076 22H119.892C123.812 22 127 25.2054 127 29.1452V69.8548C127 73.7947 123.812 77 119.892 77ZM10.1076 22.6646C6.55304 22.6646 3.66117 25.5718 3.66117 29.1451V69.8547C3.66117 73.4281 6.55304 76.3352 10.1076 76.3352H119.892C123.447 76.3352 126.339 73.4281 126.339 69.8547V29.1451C126.339 25.5718 123.447 22.6646 119.892 22.6646H10.1076Z" fill="#FF450D"/>
<path d="M45.4996 75C40.9557 75 36.5472 73.6459 32.7508 71.0838C31.0541 69.9401 29.5016 68.5691 28.1366 67.009C24.1794 62.4892 22 56.6263 22 50.5004C22 43.9561 24.4444 37.8035 28.8829 33.176C33.3214 28.5485 39.2227 26 45.4996 26C51.7766 26 57.6784 28.5484 62.1169 33.176C66.5555 37.8035 69 43.956 69 50.5004C69 57.0448 66.5556 63.1968 62.1169 67.8241C57.6783 72.4516 51.7768 75 45.4996 75ZM45.4996 26.7624C32.9451 26.7624 22.7313 37.4112 22.7313 50.5004C22.7313 56.4355 24.8427 62.116 28.6768 66.4951C29.9995 68.007 31.5038 69.3353 33.1479 70.4436C36.8259 72.9257 41.097 74.2375 45.4996 74.2375C58.0546 74.2375 68.2687 63.5891 68.2687 50.5003C68.2687 37.4115 58.0546 26.7623 45.4996 26.7623V26.7624Z" fill="#FF450D"/>
<path d="M44.9996 72C41.0303 72 37.166 70.8607 33.8245 68.7053C32.1 67.5946 30.5427 66.2328 29.1961 64.6576C25.8453 60.7412 24 55.7134 24 50.5004C24 44.7574 26.1844 39.3582 30.1507 35.2973C34.117 31.2364 39.3905 29 44.9996 29C50.6088 29 55.8827 31.2364 59.8492 35.2973C63.8156 39.3582 66 44.7573 66 50.5004C66 56.2434 63.8156 61.6422 59.8492 65.7028C55.8827 69.7637 50.6091 72 44.9996 72H44.9996ZM44.9996 29.752C33.8254 29.752 24.7344 39.0596 24.7344 50.5004C24.7344 55.5311 26.5152 60.3829 29.7487 64.1623C31.0485 65.6827 32.5513 66.9971 34.2158 68.069C37.4401 70.1489 41.169 71.2481 44.9996 71.2481C56.1742 71.2481 65.2654 61.9407 65.2654 50.5005C65.2654 39.0602 56.1743 29.7521 44.9996 29.7521V29.752Z" fill="#FF450D"/>
<path d="M33 70.8919L6.31473 104.864C5.29574 106.16 3.41101 106.38 2.12594 105.353C0.840868 104.324 0.623069 102.422 1.64197 101.125L28.4477 67C29.7906 68.486 31.3208 69.7961 32.9999 70.8919H33Z" fill="white"/>
<path d="M3.35242 106C2.62162 106 1.88601 105.761 1.27027 105.27C-0.180545 104.11 -0.424937 101.977 0.725228 100.515L27.8755 66L28.1666 66.3216C29.4956 67.7903 31.0074 69.0809 32.6598 70.1577L32.9997 70.3792L5.98704 104.72C5.32507 105.561 4.34312 106 3.35234 106L3.35242 106ZM27.9172 67.1393L1.30105 100.975C0.402617 102.118 0.593523 103.783 1.7267 104.689C2.8598 105.594 4.51279 105.402 5.4113 104.26L31.9232 70.5557C30.4683 69.5714 29.1235 68.4246 27.9172 67.1393H27.9172Z" fill="#FF450D"/>
<path d="M28.4464 56L28 55.1345L52.2941 43.0875C52.5926 42.9393 52.9495 42.9819 53.2033 43.1955L65 53.1293L64.3556 53.8651L52.6422 44.0017L28.4464 56Z" fill="#FF450D"/>
<path d="M74.4031 62.9999C74.2107 62.9999 74.0178 62.9334 73.8628 62.7991L69 58.5765L69.649 57.8164L74.3956 61.938L95.299 41L96 41.7116L74.9877 62.7586C74.8277 62.9189 74.6156 63 74.403 63L74.4031 62.9999Z" fill="#FF450D"/>
<path d="M100.193 45.9999C99.9991 45.9999 99.8079 45.9331 99.6566 45.8045L90.2702 37.8296C90.0258 37.6219 89.9375 37.2972 90.0453 37.0025C90.153 36.7078 90.4338 36.5057 90.7607 36.4878L99.6367 36.0013C100.081 35.9771 100.463 36.3015 100.488 36.7247L100.999 45.1864C101.017 45.4981 100.839 45.7872 100.544 45.923C100.432 45.9747 100.312 46 100.193 46L100.193 45.9999ZM91.3728 37.4434L99.9327 44.7162L99.4672 36.9997L91.3727 37.4434H91.3728Z" fill="#FF450D"/>
</svg>
