<svg width="612" height="539" viewBox="0 0 612 539" fill="none" xmlns="http://www.w3.org/2000/svg">
<g clip-path="url(#clip0_30_1765)">
<path d="M612 438.46H0V441.236H612V438.46Z" fill="#FF470D"/>
<path d="M410.579 438.608H132.048C129.175 438.608 126.838 436.147 126.838 433.121V16.4937C126.838 13.4679 129.175 11.0063 132.048 11.0063H410.579C413.451 11.0063 415.788 13.4679 415.788 16.4937V433.121C415.788 436.147 413.451 438.608 410.579 438.608V438.608ZM132.048 13.0855C130.264 13.0855 128.812 14.6145 128.812 16.4937V433.121C128.812 435 130.264 436.529 132.048 436.529H410.579C412.363 436.529 413.814 435 413.814 433.121V16.4937C413.814 14.6145 412.363 13.0855 410.579 13.0855H132.048ZM399.518 427.002H144.843C141.971 427.002 139.634 424.54 139.634 421.514V28.4057C139.634 25.3799 141.971 22.9184 144.843 22.9184H399.518C402.391 22.9184 404.728 25.3799 404.728 28.4057V421.514C404.728 424.54 402.391 427.002 399.518 427.002ZM144.843 24.9975C143.059 24.9975 141.608 26.5266 141.608 28.4057V421.514C141.608 423.393 143.059 424.922 144.843 424.922H399.518C401.302 424.922 402.754 423.393 402.754 421.514V28.4057C402.754 26.5264 401.302 24.9975 399.518 24.9975H144.843Z" fill="#FF8600"/>
<path d="M399.518 427.002H144.843C141.971 427.002 139.634 424.54 139.634 421.514V28.4057C139.634 25.3799 141.971 22.9184 144.843 22.9184H399.518C402.391 22.9184 404.727 25.3799 404.727 28.4057V421.514C404.727 424.54 402.391 427.002 399.518 427.002ZM144.843 24.9975C143.059 24.9975 141.608 26.5266 141.608 28.4057V421.514C141.608 423.393 143.059 424.922 144.843 424.922H399.518C401.302 424.922 402.753 423.393 402.753 421.514V28.4057C402.753 26.5263 401.302 24.9975 399.518 24.9975H144.843Z" fill="#FF8600"/>
<path d="M399.518 427.002H144.843C141.971 427.002 139.634 424.54 139.634 421.514V28.4057C139.634 25.3799 141.971 22.9184 144.843 22.9184H399.518C402.391 22.9184 404.727 25.3799 404.727 28.4057V421.514C404.727 424.54 402.391 427.002 399.518 427.002ZM144.843 24.9975C143.059 24.9975 141.608 26.5266 141.608 28.4057V421.514C141.608 423.393 143.059 424.922 144.843 424.922H399.518C401.302 424.922 402.753 423.393 402.753 421.514V28.4057C402.753 26.5263 401.302 24.9975 399.518 24.9975H144.843Z" fill="#FF8600"/>
<path d="M445.309 1.03958H233.392C219.003 1.03958 207.338 13.3272 207.338 28.4847V137.121C207.338 152.279 219.003 164.566 233.392 164.566H445.309C459.698 164.566 471.363 152.279 471.363 137.121V28.4847C471.363 13.3272 459.698 1.03958 445.309 1.03958Z" fill="white"/>
<path d="M445.309 165.606H233.392C218.482 165.606 206.351 152.828 206.351 137.121V28.4847C206.351 12.7782 218.482 0 233.392 0H445.309C460.22 0 472.35 12.7782 472.35 28.4847V137.121C472.35 152.828 460.22 165.606 445.309 165.606ZM233.392 2.07918C219.57 2.07918 208.325 13.9247 208.325 28.4847V137.121C208.325 151.681 219.57 163.527 233.392 163.527H445.309C459.131 163.527 470.377 151.681 470.377 137.121V28.4847C470.377 13.9247 459.131 2.07918 445.309 2.07918H233.392Z" fill="#FF450D"/>
<path d="M381.169 142.422H303.657C297.941 142.422 293.292 137.524 293.292 131.504V63.7929C293.292 57.7725 297.941 52.8743 303.657 52.8743H381.169C386.885 52.8743 391.535 57.7725 391.535 63.7929V131.504C391.535 137.524 386.885 142.422 381.169 142.422ZM303.657 54.33C298.703 54.33 294.673 58.575 294.673 63.7931V131.504C294.673 136.722 298.703 140.967 303.657 140.967H381.169C386.123 140.967 390.153 136.722 390.153 131.504V63.7929C390.153 58.575 386.123 54.3297 381.169 54.3297H303.657V54.33Z" fill="#FF450D"/>
<path d="M373.39 54.33H315.052L315.139 53.5203C316.996 36.2255 329.499 23.1835 344.221 23.1835C358.943 23.1835 371.446 36.2255 373.303 53.5203L373.39 54.33H373.39ZM316.607 52.8745H371.835C369.762 36.7204 358.01 24.6391 344.221 24.6391C330.432 24.6391 318.681 36.7204 316.608 52.8745H316.607Z" fill="#FF450D"/>
<path d="M223.803 323.138C258.877 323.138 287.31 293.187 287.31 256.24C287.31 219.294 258.877 189.343 223.803 189.343C188.729 189.343 160.296 219.294 160.296 256.24C160.296 293.187 188.729 323.138 223.803 323.138Z" fill="white"/>
<path d="M223.803 324.073C206.602 324.073 190.431 317.017 178.269 304.206C166.106 291.393 159.408 274.359 159.408 256.24C159.408 238.122 166.106 221.087 178.269 208.275C190.431 195.463 206.602 188.408 223.803 188.408C241.004 188.408 257.175 195.463 269.338 208.275C281.5 221.087 288.198 238.122 288.198 256.24C288.198 274.359 281.5 291.393 269.338 304.206C257.175 317.017 241.004 324.073 223.803 324.073ZM223.803 190.279C189.275 190.279 161.184 219.869 161.184 256.24C161.184 292.612 189.275 322.202 223.803 322.202C258.332 322.202 286.422 292.612 286.422 256.24C286.422 219.869 258.332 190.279 223.803 190.279Z" fill="#FF450D"/>
<path d="M214.485 287.012C213.213 287.012 212.019 286.493 211.125 285.551C210.917 285.333 210.727 285.092 210.561 284.834C210.368 284.668 210.187 284.486 210.022 284.291L187.407 257.586C186.564 256.592 186.14 255.308 186.213 253.97C186.285 252.632 186.845 251.406 187.789 250.519C188.656 249.703 189.778 249.253 190.948 249.253C192.306 249.253 193.6 249.861 194.498 250.922L214.668 274.74L260.056 226.93C260.951 225.988 262.144 225.469 263.416 225.469C264.688 225.469 265.881 225.988 266.775 226.93C267.67 227.871 268.163 229.128 268.163 230.47C268.163 231.811 267.67 233.065 266.775 234.008L217.845 285.551C216.951 286.493 215.758 287.012 214.485 287.012H214.485ZM190.948 251.332C190.264 251.332 189.609 251.594 189.104 252.07C188.552 252.588 188.225 253.304 188.183 254.088C188.141 254.871 188.388 255.622 188.879 256.202L211.494 282.906C211.614 283.048 211.749 283.179 211.894 283.295L212.039 283.41L212.135 283.572C212.244 283.757 212.373 283.927 212.518 284.079C213.042 284.63 213.74 284.933 214.485 284.933C215.23 284.933 215.928 284.63 216.449 284.081L265.379 232.538C265.902 231.988 266.189 231.253 266.189 230.47C266.189 229.686 265.902 228.949 265.38 228.401C264.858 227.851 264.16 227.548 263.415 227.548C262.67 227.548 261.973 227.851 261.451 228.4L214.586 277.766L193.025 252.306C192.501 251.687 191.744 251.332 190.948 251.332L190.948 251.332Z" fill="#FF8600"/>
<path d="M436.17 293.421L339.767 452.943C337.192 457.205 338.384 462.859 342.43 465.573L448.254 536.534C452.3 539.248 457.669 537.992 460.244 533.73L556.647 374.208C559.222 369.946 558.03 364.291 553.984 361.578L448.16 290.616C444.114 287.903 438.745 289.158 436.17 293.421Z" fill="white"/>
<path d="M452.902 539C451.126 539 449.33 538.486 447.724 537.409L341.9 466.448C337.401 463.431 336.071 457.122 338.935 452.383L435.336 292.86C436.719 290.573 438.872 288.988 441.401 288.396C443.93 287.805 446.518 288.281 448.689 289.737L554.514 360.698C556.685 362.154 558.19 364.423 558.752 367.086C559.313 369.75 558.861 372.477 557.479 374.764L461.077 534.286C459.236 537.333 456.101 539 452.903 539L452.902 539ZM448.784 535.655C452.365 538.056 457.132 536.941 459.412 533.169L555.814 373.647C556.913 371.828 557.272 369.658 556.824 367.537C556.377 365.416 555.18 363.61 553.454 362.452L447.629 291.491C445.902 290.333 443.842 289.955 441.829 290.426C439.815 290.897 438.1 292.158 437.001 293.977L340.6 453.499C339.501 455.317 339.141 457.487 339.589 459.609C340.036 461.73 341.233 463.536 342.959 464.694L448.784 535.655Z" fill="#FF450D"/>
<path d="M381.196 424.688L362.288 455.977C361.585 457.14 361.91 458.682 363.014 459.422L380.2 470.947C381.304 471.687 382.768 471.344 383.47 470.182L402.379 438.893C403.081 437.73 402.756 436.188 401.653 435.448L384.466 423.923C383.363 423.184 381.899 423.526 381.196 424.688Z" fill="white"/>
<path d="M381.466 472.373C380.85 472.373 380.227 472.195 379.67 471.822L362.483 460.297C360.923 459.25 360.461 457.061 361.455 455.417L380.363 424.128C380.843 423.334 381.59 422.784 382.467 422.579C383.343 422.374 384.242 422.539 384.996 423.044L402.182 434.569C402.936 435.075 403.458 435.862 403.653 436.785C403.848 437.708 403.691 438.655 403.211 439.449L384.302 470.738C383.663 471.795 382.576 472.373 381.466 472.373ZM380.73 470.068C381.372 470.498 382.228 470.298 382.637 469.621L401.546 438.332C401.743 438.007 401.807 437.617 401.726 437.236C401.646 436.855 401.431 436.53 401.122 436.323L383.936 424.798C383.626 424.591 383.257 424.524 382.895 424.608C382.533 424.693 382.225 424.919 382.028 425.245L363.12 456.534C362.923 456.859 362.859 457.249 362.939 457.63C363.02 458.011 363.234 458.336 363.543 458.543L380.73 470.068V470.068Z" fill="#FF450D"/>
<path d="M401.971 487.398L400.414 490.022L401.935 491.39C402.009 491.218 402.077 491.057 402.227 490.803C402.541 490.274 402.965 489.818 403.457 489.553C404.069 489.205 404.894 489.132 405.718 489.674C406.993 490.513 407.314 492.21 406.429 493.701C405.983 494.452 405.406 494.955 405.01 495.151L404.476 494.475C404.806 494.295 405.339 493.867 405.71 493.242C406.23 492.364 406.133 491.256 405.26 490.681C404.41 490.136 403.456 490.332 402.64 491.708C402.408 492.099 402.266 492.432 402.146 492.706L399.276 490.199L401.228 486.909L401.971 487.399V487.398Z" fill="#FF8600"/>
<path d="M405.289 481.992L405.277 482.013L405.18 483.612L404.401 483.349L404.529 481.344L404.999 480.551L411.527 484.848L410.994 485.747L405.289 481.992L405.289 481.992Z" fill="#FF8600"/>
<path d="M410.92 472.312L409.364 474.936L410.884 476.304C410.958 476.132 411.026 475.971 411.176 475.717C411.49 475.188 411.914 474.732 412.406 474.467C413.017 474.119 413.843 474.045 414.667 474.587C415.943 475.427 416.263 477.123 415.378 478.615C414.932 479.366 414.355 479.868 413.959 480.064L413.425 479.389C413.755 479.209 414.288 478.781 414.658 478.156C415.18 477.278 415.082 476.17 414.209 475.595C413.359 475.05 412.405 475.246 411.589 476.622C411.357 477.013 411.215 477.346 411.095 477.62L408.225 475.113L410.177 471.823L410.92 472.312V472.312Z" fill="#FF8600"/>
<path d="M418.744 472.681L418.202 472.324L417.962 471.151C417.417 468.351 417.044 467.002 416.066 466.344C415.403 465.908 414.59 465.843 413.981 466.869C413.611 467.493 413.605 468.21 413.668 468.692L412.869 468.579C412.77 467.851 412.891 466.989 413.361 466.196C414.24 464.715 415.574 464.725 416.508 465.34C417.713 466.133 418.141 467.695 418.607 470.017L418.763 470.884L418.783 470.897L420.616 467.808L421.349 468.291L418.744 472.681L418.744 472.681Z" fill="#FF8600"/>
<path d="M425.011 449.455C424.888 449.639 424.754 449.888 424.637 450.179C424.002 451.791 424.558 453.231 425.539 454.097L425.557 454.065C425.34 453.467 425.338 452.67 425.79 451.909C426.511 450.692 427.853 450.384 429.129 451.224C430.324 452.01 430.92 453.594 430.073 455.022C429.2 456.493 427.545 456.741 425.848 455.624C424.562 454.778 423.836 453.624 423.595 452.524C423.402 451.602 423.522 450.622 423.937 449.689C424.06 449.387 424.188 449.148 424.288 448.979L425.011 449.455ZM428.621 452.198C427.687 451.583 426.791 451.774 426.283 452.631C425.95 453.191 425.974 453.928 426.296 454.492C426.358 454.622 426.464 454.75 426.625 454.856C427.712 455.542 428.812 455.546 429.39 454.573C429.867 453.769 429.554 452.813 428.621 452.198Z" fill="#FF8600"/>
<path d="M431.355 448.717C430.532 448.175 430.257 447.274 430.417 446.202L430.381 446.193C429.587 446.73 428.831 446.688 428.269 446.318C427.234 445.637 427.077 444.254 427.793 443.048C428.583 441.714 429.772 441.57 430.585 442.106C431.138 442.469 431.561 443.145 431.44 444.242L431.471 444.262C432.3 443.617 433.186 443.465 433.98 443.987C435.115 444.734 435.269 446.263 434.491 447.574C433.638 449.013 432.309 449.345 431.355 448.717H431.355ZM428.729 445.4C429.382 445.829 430.041 445.543 430.712 444.881C430.873 444.163 430.741 443.444 430.148 443.054C429.626 442.71 428.889 442.681 428.394 443.517C427.936 444.289 428.167 445.03 428.729 445.4V445.4ZM433.511 444.988C432.718 444.466 431.991 444.797 431.188 445.562C430.932 446.512 431.177 447.276 431.8 447.686C432.444 448.154 433.34 448.008 433.861 447.13C434.357 446.294 434.184 445.431 433.511 444.988Z" fill="#FF8600"/>
<path d="M433.658 433.419L434.24 433.803L438.41 440.71L437.839 441.673L433.833 434.888L433.813 434.875L431.818 438.239L431.085 437.757L433.658 433.419L433.658 433.419Z" fill="#FF8600"/>
<path d="M441.129 433.747C441.447 433.589 442.062 433.14 442.444 432.495C443.154 431.3 442.65 430.454 442.102 430.107C441.182 429.516 440.275 430.126 439.742 431.025L439.434 431.543L438.771 431.107L439.079 430.589C439.481 429.912 439.657 428.837 438.885 428.328C438.362 427.984 437.693 428.029 437.185 428.886C436.858 429.436 436.775 430.117 436.801 430.545L436.014 430.366C435.976 429.841 436.14 428.977 436.579 428.237C437.382 426.883 438.509 426.771 439.303 427.294C439.975 427.736 440.297 428.537 440.086 429.575L440.106 429.588C440.769 428.847 441.779 428.556 442.693 429.158C443.738 429.845 444.143 431.304 443.164 432.954C442.706 433.726 442.074 434.251 441.662 434.451L441.13 433.748L441.129 433.747Z" fill="#FF8600"/>
<path d="M460.06 405.044C460.199 404.856 460.317 404.61 460.475 404.273C460.725 403.687 460.815 403.04 460.696 402.418C460.574 401.705 460.196 401 459.498 400.364L459.479 400.396C459.696 401.068 459.63 401.79 459.222 402.477C458.488 403.715 457.133 403.927 456.019 403.193C454.784 402.38 454.258 400.724 455.092 399.317C455.927 397.91 457.526 397.757 459.193 398.854C460.629 399.799 461.332 400.968 461.553 402.055C461.732 402.908 461.6 403.836 461.241 404.629C461.09 405.001 460.925 405.304 460.783 405.519L460.06 405.043V405.044ZM456.505 402.233C457.318 402.768 458.198 402.627 458.675 401.823C459.045 401.199 459.043 400.52 458.795 400.019C458.746 399.913 458.665 399.815 458.524 399.723C457.409 398.989 456.298 398.861 455.721 399.834C455.25 400.628 455.581 401.625 456.505 402.232V402.233Z" fill="#FF8600"/>
<path d="M463.955 397.56C464.272 397.402 464.887 396.953 465.27 396.308C465.979 395.113 465.476 394.267 464.927 393.92C464.007 393.329 463.101 393.939 462.567 394.838L462.26 395.356L461.597 394.92L461.904 394.402C462.306 393.725 462.483 392.65 461.71 392.141C461.188 391.797 460.519 391.842 460.01 392.699C459.684 393.249 459.601 393.93 459.627 394.358L458.839 394.179C458.802 393.654 458.965 392.79 459.404 392.05C460.207 390.696 461.334 390.584 462.128 391.107C462.801 391.55 463.122 392.35 462.911 393.388L462.932 393.401C463.594 392.66 464.605 392.369 465.519 392.971C466.563 393.658 466.969 395.117 465.99 396.767C465.532 397.54 464.899 398.064 464.488 398.264L463.955 397.561L463.955 397.56Z" fill="#FF8600"/>
<path d="M469.311 390.907L468.769 390.55L468.529 389.377C467.984 386.577 467.611 385.228 466.633 384.569C465.971 384.133 465.157 384.069 464.549 385.094C464.178 385.719 464.172 386.436 464.235 386.918L463.437 386.804C463.337 386.077 463.458 385.215 463.928 384.421C464.807 382.94 466.141 382.951 467.075 383.566C468.28 384.359 468.709 385.921 469.175 388.242L469.33 389.11L469.35 389.123L471.183 386.034L471.916 386.516L469.312 390.907L469.311 390.907Z" fill="#FF8600"/>
<path d="M473.163 376.599C475.382 378.06 476.093 379.734 475.189 381.258C474.393 382.601 472.658 382.724 470.486 381.324C468.296 379.883 467.681 378.095 468.51 376.699C469.369 375.25 471.084 375.231 473.163 376.599ZM471.048 380.4C472.745 381.517 474.036 381.601 474.538 380.755C475.103 379.803 474.318 378.654 472.651 377.557C471.044 376.499 469.732 376.239 469.161 377.202C468.678 378.016 469.271 379.23 471.048 380.4Z" fill="#FF8600"/>
<path d="M485.139 365.072L483.361 363.902L481.466 367.097L480.884 366.713L478.536 360.902L479.132 359.897L483.189 362.568L483.76 361.605L484.453 362.061L483.882 363.024L485.66 364.194L485.139 365.072H485.139ZM482.668 363.446L480.489 362.011C480.148 361.787 479.813 361.551 479.484 361.305L479.465 361.337C479.721 361.8 479.901 362.154 480.09 362.543L481.311 365.686L481.332 365.699L482.668 363.446H482.668Z" fill="#FF8600"/>
<path d="M487.024 359.517C487.342 359.358 487.957 358.909 488.34 358.264C489.049 357.069 488.545 356.223 487.997 355.876C487.077 355.285 486.17 355.895 485.637 356.794L485.329 357.312L484.667 356.876L484.974 356.358C485.376 355.681 485.553 354.605 484.779 354.097C484.257 353.753 483.588 353.798 483.08 354.655C482.754 355.205 482.671 355.886 482.696 356.314L481.909 356.135C481.871 355.61 482.034 354.746 482.474 354.006C483.277 352.652 484.404 352.54 485.198 353.063C485.87 353.506 486.192 354.306 485.981 355.344L486.001 355.357C486.664 354.616 487.675 354.325 488.588 354.927C489.633 355.614 490.038 357.073 489.059 358.723C488.601 359.495 487.969 360.02 487.557 360.22L487.025 359.517L487.024 359.517Z" fill="#FF8600"/>
<path d="M492.381 352.863L491.839 352.506L491.599 351.333C491.054 348.533 490.681 347.184 489.703 346.526C489.04 346.089 488.227 346.025 487.618 347.051C487.248 347.675 487.242 348.392 487.305 348.874L486.506 348.761C486.407 348.033 486.527 347.171 486.998 346.378C487.877 344.897 489.211 344.907 490.145 345.522C491.35 346.315 491.778 347.877 492.244 350.199L492.4 351.066L492.42 351.079L494.252 347.99L494.986 348.473L492.381 352.863L492.381 352.863Z" fill="#FF8600"/>
<path d="M496.856 345.32L496.313 344.963L496.073 343.79C495.528 340.989 495.155 339.641 494.178 338.983C493.515 338.546 492.701 338.482 492.093 339.508C491.722 340.132 491.716 340.849 491.779 341.331L490.981 341.218C490.881 340.49 491.002 339.628 491.473 338.835C492.351 337.354 493.686 337.364 494.619 337.979C495.824 338.772 496.252 340.334 496.718 342.656L496.874 343.523L496.895 343.536L498.727 340.447L499.46 340.93L496.856 345.32L496.856 345.32Z" fill="#FF8600"/>
<path d="M336.705 421.007C336.426 422.521 335.094 423.283 322.734 425.962H263.79C266.241 420.58 272.396 407.075 283.783 401.184C306.091 389.646 338.238 412.635 336.705 421.007H336.705Z" fill="#FF470D"/>
<path d="M328.371 283.622C325.325 286.197 327.59 288.468 322.518 296.638C318.326 303.392 315.335 304.165 313.414 309.312C311.011 315.748 312.858 322.123 313.414 324.04C317.959 339.725 337.423 345.487 343.654 347.332C350.45 349.343 364.627 353.54 379.423 345.962C390.329 340.375 395.725 331.385 398.283 327.123C401.387 321.95 407.664 311.49 404.135 305.886C402.078 302.619 398.299 303.563 385.276 299.721C384.002 299.345 380.742 298.215 374.22 295.953C343.739 285.384 334.091 278.789 328.372 283.622H328.371Z" fill="white"/>
<path d="M361.106 350.84C353.68 350.84 347.41 348.984 343.521 347.832C337.101 345.932 317.565 340.15 312.942 324.192C311.314 318.574 311.318 313.504 312.954 309.122C314.035 306.226 315.416 304.7 317.165 302.768C318.596 301.186 320.219 299.392 322.105 296.354C324.759 292.078 325.366 289.458 325.809 287.545C326.214 285.795 326.507 284.531 328.062 283.217C332.339 279.603 338.301 281.9 352.706 287.451C358.423 289.654 365.538 292.395 374.374 295.459L374.414 295.473C380.895 297.721 384.148 298.849 385.408 299.22C390.359 300.681 394.001 301.454 396.659 302.018C401.123 302.966 403.161 303.399 404.546 305.599C408.252 311.483 401.8 322.233 398.7 327.4C396.093 331.743 390.671 340.778 379.638 346.429C373.151 349.752 366.79 350.84 361.106 350.84H361.106ZM328.68 284.028C327.386 285.121 327.154 286.126 326.768 287.791C326.308 289.778 325.678 292.498 322.931 296.923C320.996 300.041 319.34 301.871 317.879 303.485C316.205 305.335 314.883 306.796 313.873 309.502C312.32 313.661 312.324 318.501 313.885 323.888C318.352 339.302 337.496 344.969 343.787 346.831C350.536 348.829 364.579 352.987 379.206 345.494C389.986 339.972 395.308 331.106 397.865 326.845C400.855 321.863 407.076 311.497 403.724 306.174C402.564 304.333 400.778 303.954 396.464 303.038C393.79 302.47 390.128 301.692 385.142 300.221C383.861 299.843 380.6 298.713 374.105 296.461L374.065 296.447C365.214 293.378 358.091 290.633 352.367 288.427C338.332 283.019 332.522 280.78 328.68 284.028L328.68 284.028Z" fill="#E81400"/>
<path d="M342.354 289.788C341.762 289.924 328.14 292.849 320.893 283.622C320.136 282.659 316.214 277.657 317.316 271.634C318.496 265.182 324.844 261.006 329.997 259.988C336.191 258.764 338.074 262.616 343.979 261.016C349.621 259.487 349.426 255.56 354.71 253.48C361.286 250.891 368.166 254.386 376.496 258.618C384.239 262.552 389.289 267.099 392.754 270.264C397.665 274.748 402.443 279.191 406.411 286.705C408.059 289.824 410.551 294.653 411.289 301.433C411.743 305.605 411.336 308.706 410.638 313.764C409.336 323.208 408.849 327.954 406.737 330.891C402.758 336.42 399.259 333.284 390.803 340.481C386.558 344.095 384.933 347.019 380.398 348.017C379.869 348.133 374.544 349.245 372.919 346.647C371.387 344.196 373.987 339.79 375.195 337.741C376.915 334.827 377.923 334.695 381.048 330.206C383.276 327.005 382.784 327.044 383.975 325.753C387.13 322.333 389.741 322.978 392.429 320.273C393.41 319.285 395.99 316.64 395.681 313.08C395.467 310.609 393.866 307.783 391.129 306.914C388.082 305.947 384.862 307.796 383.65 309.997C382.731 311.665 383.261 313.001 382.024 314.45C381.344 315.246 379.77 316.508 378.447 316.162C375.169 315.306 377.553 305.641 371.944 300.406C371.312 299.816 369.68 298.985 366.416 297.323C365.346 296.778 361.878 295.042 356.986 293.213C354.614 292.326 353.039 291.738 350.808 291.158C347.389 290.269 344.457 289.928 342.354 289.788Z" fill="#FF470D"/>
<path d="M324.862 328.525C325.767 327.561 326.861 326.764 328.079 326.247C328.378 326.103 328.695 326.005 329.007 325.898C329.327 325.813 329.644 325.718 329.971 325.664C330.295 325.591 330.627 325.574 330.956 325.539C331.288 325.53 331.619 325.514 331.951 325.542C333.276 325.625 334.591 326.076 335.684 326.863C336.779 327.649 337.649 328.738 338.213 329.958C337.439 328.875 336.511 327.94 335.437 327.274C335.301 327.195 335.167 327.111 335.027 327.042C334.889 326.966 334.75 326.896 334.607 326.832C334.468 326.76 334.319 326.712 334.175 326.654C334.03 326.597 333.886 326.539 333.735 326.501C333.146 326.303 332.531 326.201 331.914 326.164C331.606 326.133 331.296 326.144 330.986 326.147C330.677 326.173 330.367 326.191 330.06 326.246C329.75 326.281 329.447 326.359 329.141 326.425L328.689 326.556C328.536 326.594 328.388 326.647 328.24 326.701C327.044 327.113 325.925 327.759 324.862 328.525V328.525Z" fill="#E81400"/>
<path d="M319.592 329.178C306.734 324.001 303.115 324.76 291.627 318.56C287.801 316.495 286.668 315.582 276.67 309.997C272.226 307.514 268.288 305.487 260.411 301.434C250.445 296.304 248.65 295.568 245.779 295.611C244.136 295.635 236.191 295.754 233.097 302.119C231.351 305.71 232.672 309.421 235.332 316.668C238.684 325.803 243.367 332.606 248.38 339.796C250.599 342.978 251.708 344.57 252.607 345.619C265.791 361.002 284.028 356.665 288.05 367.541C289.58 371.678 288.431 376.332 287.725 379.187C286.547 383.956 284.877 384.858 281.222 392.888C278.719 398.386 277.468 401.135 276.995 404.876C276.8 406.416 275.971 412.975 278.946 418.919C281.051 423.126 284.799 426.5 295.204 430.565C307.757 435.47 318.269 436.797 323.494 437.416C353.731 440.998 349.71 437.181 361.538 440.499C363.165 440.955 366.559 441.982 369.017 440.156C371.75 438.125 370.174 433.9 371.293 425.77C372.698 415.558 376.577 413.445 376.171 404.876C375.951 400.251 373.854 397.039 374.545 396.655C375.277 396.248 377.157 399.959 381.698 404.876C384.804 408.239 385.635 408.354 393.079 415.152C396.89 418.632 397.538 419.392 398.932 420.632C405.964 426.887 416.614 429.112 437.627 433.306C440.537 433.886 443.144 434.367 445.756 432.963C450.519 430.403 454.613 423.252 452.259 417.207C450.94 413.818 447.983 412.086 446.732 411.384C423.646 398.429 416.354 394.576 409.663 389.805C407.747 388.439 402.207 383.414 391.128 373.364C379.684 362.982 379.355 362.255 375.52 359.32C368.204 353.721 364.949 352.963 349.182 344.934C326.853 333.565 330.037 333.384 319.591 329.178H319.592Z" fill="#FF8600"/>
<path d="M365.524 441.717C363.952 441.717 362.475 441.3 361.549 441.04L361.411 441.001C355.821 439.433 353.866 439.477 349.97 439.564C345.699 439.66 339.245 439.805 323.439 437.932C318.802 437.383 307.944 436.097 295.033 431.052C284.126 426.791 280.539 423.217 278.51 419.162C277.119 416.383 275.643 411.638 276.506 404.808C276.989 400.984 278.255 398.203 280.777 392.663C282.37 389.165 283.579 387.026 284.551 385.307C285.783 383.128 286.598 381.688 287.248 379.056C287.927 376.308 289.063 371.71 287.591 367.729C285.74 362.725 280.715 361.085 274.354 359.007C267.587 356.797 259.166 354.048 252.241 345.967C251.329 344.904 250.222 343.315 248.015 340.15L247.983 340.104C243.23 333.289 238.316 326.241 234.871 316.856C232.238 309.681 230.788 305.729 232.658 301.882C234.741 297.598 239.398 295.186 245.772 295.091C248.712 295.047 250.513 295.761 260.628 300.967C268.498 305.017 272.448 307.05 276.901 309.537C282.508 312.669 285.335 314.337 287.4 315.555C289.013 316.506 290.178 317.194 291.853 318.097C298.627 321.754 302.729 322.999 307.478 324.441C310.78 325.444 314.522 326.58 319.768 328.693C325.022 330.808 326.849 331.911 330.167 333.913C333.38 335.852 338.237 338.784 349.397 344.466C353.964 346.792 357.505 348.519 360.351 349.907C367.372 353.331 370.577 354.894 375.811 358.9C378.139 360.681 379.15 361.623 382.152 364.419C384.155 366.285 386.899 368.841 391.451 372.97L391.468 372.985C402.508 383 408.049 388.026 409.94 389.374C415.413 393.277 421.442 396.648 436.009 404.792C439.214 406.583 442.837 408.609 446.965 410.925C448.035 411.526 451.294 413.355 452.717 417.01C455.145 423.245 451.116 430.666 445.982 433.426C443.166 434.94 440.304 434.369 437.536 433.816C417.13 429.744 405.889 427.5 398.615 421.029C398.016 420.497 397.561 420.059 396.93 419.452C396.093 418.647 394.946 417.544 392.757 415.544C389.427 412.504 387.415 410.796 385.946 409.549C384.098 407.98 383.08 407.117 381.345 405.239C379.19 402.905 377.641 400.856 376.51 399.36C375.947 398.616 375.371 397.854 374.985 397.442C375.07 397.752 375.202 398.152 375.325 398.524C375.808 399.985 376.538 402.192 376.664 404.85C376.892 409.658 375.807 412.472 374.551 415.731C373.547 418.336 372.409 421.287 371.782 425.845C371.364 428.882 371.326 431.394 371.295 433.412C371.242 436.876 371.208 439.165 369.302 440.581C368.145 441.441 366.803 441.717 365.524 441.717L365.524 441.717ZM352.191 438.49C354.858 438.49 357.135 438.726 361.666 439.996L361.804 440.035C363.456 440.5 366.532 441.367 368.733 439.731C370.229 438.62 370.259 436.653 370.308 433.395C370.339 431.347 370.378 428.799 370.805 425.695C371.45 421.013 372.611 417.999 373.636 415.34C374.848 412.195 375.895 409.479 375.678 404.902C375.559 402.393 374.857 400.27 374.393 398.866C373.936 397.486 373.635 396.574 374.315 396.196C375.062 395.78 375.713 396.637 377.281 398.712C378.399 400.191 379.931 402.217 382.052 404.514C383.745 406.346 384.747 407.196 386.565 408.74C388.04 409.991 390.059 411.706 393.403 414.759C395.602 416.767 396.754 417.875 397.595 418.685C398.217 419.283 398.667 419.715 399.251 420.235C406.041 426.275 415.951 428.45 437.72 432.795C440.444 433.338 443.017 433.852 445.533 432.5C450.275 429.95 453.965 422.953 451.804 417.404C450.515 414.096 447.493 412.4 446.5 411.842C442.373 409.526 438.75 407.501 435.546 405.71C420.946 397.548 414.903 394.169 409.387 390.235C407.448 388.853 401.892 383.813 390.824 373.773L390.807 373.758C386.249 369.624 383.503 367.065 381.498 365.198C378.523 362.426 377.52 361.493 375.231 359.741C370.074 355.795 366.897 354.245 359.936 350.85C357.087 349.46 353.542 347.731 348.968 345.402C337.776 339.704 332.902 336.762 329.676 334.815C326.401 332.839 324.598 331.75 319.416 329.663C314.208 327.567 310.487 326.437 307.205 325.44C302.406 323.983 298.262 322.725 291.403 319.022C289.712 318.11 288.54 317.419 286.919 316.462C284.858 315.247 282.036 313.582 276.439 310.456C272 307.976 268.055 305.946 260.195 301.901C250.267 296.791 248.516 296.095 245.786 296.131C239.795 296.22 235.445 298.431 233.537 302.356C231.936 305.65 233.072 309.066 235.793 316.481C239.19 325.738 244.064 332.728 248.778 339.489L248.81 339.534C250.998 342.672 252.096 344.246 252.974 345.271C259.718 353.14 267.649 355.729 274.647 358.014C281 360.089 286.487 361.881 288.511 367.352C290.099 371.646 288.912 376.449 288.203 379.318C287.518 382.094 286.675 383.584 285.399 385.84C284.437 387.54 283.24 389.657 281.667 393.112C279.19 398.554 277.947 401.285 277.484 404.945C276.656 411.503 278.059 416.032 279.383 418.677C281.307 422.522 284.763 425.932 295.376 430.078C308.174 435.078 318.948 436.355 323.549 436.9C339.29 438.764 345.705 438.62 349.949 438.525C350.756 438.507 351.487 438.49 352.191 438.49L352.191 438.49Z" fill="white"/>
<path d="M280.718 360.833C281.853 360.948 282.961 361.143 284.065 361.354C285.167 361.569 286.261 361.808 287.35 362.056L290.61 362.815C291.153 362.939 291.696 363.06 292.241 363.167C292.788 363.275 293.332 363.366 293.901 363.369C293.366 363.595 292.777 363.644 292.207 363.676C291.634 363.698 291.063 363.671 290.496 363.623C289.362 363.521 288.244 363.324 287.141 363.072C286.037 362.819 284.948 362.509 283.875 362.144C282.803 361.775 281.742 361.362 280.718 360.833H280.718Z" fill="white"/>
<path d="M221.877 285.019C229.393 277.571 233.871 277.009 236.578 277.896C239.913 278.989 242.289 282.847 243.928 281.922C245.378 281.104 244.187 277.712 246.28 276.038C247.388 275.151 249.184 274.932 250.103 275.728C251.274 276.744 250.616 279.064 250.103 282.851C249.192 289.566 250.223 290.239 249.515 292.762C247.77 298.972 238.467 306.412 230.11 302.672C224.247 300.049 220.616 292.715 221.877 285.019L221.877 285.019Z" fill="white"/>
<path d="M234.834 304.19C233.128 304.19 231.468 303.845 229.917 303.151C223.702 300.37 220.117 292.708 221.391 284.931L221.419 284.76L221.539 284.641C227.687 278.548 232.796 276.112 236.725 277.4C238.34 277.929 239.694 279.034 240.888 280.008C242.07 280.973 243.091 281.806 243.695 281.464C244.135 281.216 244.229 280.433 244.338 279.526C244.491 278.251 244.682 276.664 245.982 275.624C247.182 274.664 249.25 274.315 250.416 275.327C251.59 276.345 251.306 278.189 250.877 280.982C250.783 281.595 250.685 282.229 250.591 282.925C250.098 286.559 250.182 288.389 250.242 289.726C250.294 290.864 250.331 291.687 249.988 292.91C248.942 296.633 245.434 300.529 241.258 302.603C239.132 303.659 236.949 304.19 234.834 304.19H234.834ZM222.337 285.279C221.219 292.525 224.55 299.62 230.303 302.194C234.418 304.036 238.303 302.922 240.838 301.663C244.774 299.707 248.071 296.071 249.042 292.615C249.338 291.56 249.306 290.85 249.257 289.775C249.194 288.397 249.108 286.51 249.614 282.778C249.71 282.072 249.813 281.405 249.903 280.816C250.278 278.378 250.525 276.767 249.789 276.129C249.084 275.518 247.554 275.672 246.579 276.452C245.61 277.227 245.461 278.462 245.317 279.656C245.18 280.799 245.05 281.879 244.162 282.38C242.993 283.039 241.737 282.016 240.283 280.83C239.156 279.909 237.877 278.866 236.432 278.392C232.892 277.233 228.151 279.549 222.337 285.278L222.337 285.279Z" fill="#E81400"/>
<path d="M449.502 411.056C449.96 410.657 455.025 406.297 456.845 407.731C457.871 408.54 457.911 411.219 456.845 412.377C456.301 412.969 455.521 413.058 455.539 413.134C455.563 413.238 457.806 412.076 460.047 412.308C462.072 412.518 464.217 413.878 465.339 415.887C467.608 419.949 464.67 424.82 464.163 425.66C461.457 430.146 456.818 431.104 456.127 431.235C450.947 432.215 444.013 429.751 442.537 424.421C440.912 418.555 447.01 413.231 449.502 411.056Z" fill="white"/>
<path d="M453.82 431.964C448.84 431.964 443.376 429.308 442.063 424.567C440.347 418.372 446.542 412.965 449.188 410.656C450.545 409.471 455.13 405.731 457.141 407.315C457.681 407.741 458.033 408.557 458.108 409.554C458.162 410.268 458.071 411.178 457.717 411.949C458.44 411.798 459.266 411.706 460.095 411.791C462.37 412.027 464.596 413.532 465.764 415.624C467.951 419.538 465.664 424.142 464.58 425.939C461.91 430.365 457.501 431.504 456.214 431.747C455.443 431.893 454.638 431.965 453.82 431.965L453.82 431.964ZM449.817 411.456C447.321 413.635 441.476 418.737 443.011 424.276C444.393 429.266 450.985 431.679 456.04 430.723C456.885 430.563 461.229 429.555 463.747 425.381C464.734 423.745 466.824 419.57 464.914 416.151C463.915 414.363 461.94 413.027 459.999 412.826C458.421 412.663 456.789 413.257 456.092 413.511C455.677 413.662 455.522 413.718 455.307 413.595L455.115 413.486L455.06 413.259C454.945 412.767 455.415 412.604 455.569 412.551C455.805 412.468 456.201 412.331 456.491 412.015C456.948 411.52 457.196 410.586 457.125 409.636C457.074 408.957 456.853 408.387 456.55 408.148C455.415 407.254 451.902 409.637 449.817 411.456L449.817 411.456Z" fill="#E81400"/>
<path d="M116.194 40.5047C114.557 40.5047 113.226 39.1025 113.226 37.3788C113.226 35.6552 114.557 34.253 116.194 34.253C117.83 34.253 119.161 35.6552 119.161 37.3788C119.161 39.1025 117.83 40.5047 116.194 40.5047ZM116.194 35.0847C114.993 35.0847 114.016 36.1139 114.016 37.3788C114.016 38.6438 114.993 39.673 116.194 39.673C117.394 39.673 118.371 38.6438 118.371 37.3788C118.371 36.1139 117.394 35.0847 116.194 35.0847Z" fill="#FF470D"/>
<path d="M430.373 273.041C428.737 273.041 427.406 271.638 427.406 269.915C427.406 268.191 428.737 266.789 430.373 266.789C432.009 266.789 433.34 268.191 433.34 269.915C433.34 271.639 432.009 273.041 430.373 273.041ZM430.373 267.621C429.172 267.621 428.195 268.65 428.195 269.915C428.195 271.18 429.172 272.209 430.373 272.209C431.574 272.209 432.551 271.18 432.551 269.915C432.551 268.65 431.574 267.621 430.373 267.621Z" fill="#FF470D"/>
<path d="M101.236 361.5C101.634 358.542 102.287 358.542 102.685 361.5C103.084 364.458 105.708 367.221 108.516 367.641C111.323 368.061 111.323 368.749 108.516 369.169C105.708 369.589 103.084 372.352 102.685 375.31C102.287 378.268 101.634 378.268 101.236 375.31C100.837 372.352 98.2132 369.589 95.4053 369.169C92.5973 368.749 92.5973 368.061 95.4053 367.641C98.2132 367.221 100.837 364.458 101.236 361.5Z" fill="#FF3E06"/>
<path d="M500.544 30.3244C500.942 27.3666 501.595 27.3666 501.993 30.3244C502.392 33.2822 505.016 36.0459 507.824 36.4659C510.632 36.8859 510.632 37.573 507.824 37.993C505.016 38.413 502.392 41.1767 501.993 44.1345C501.595 47.0923 500.942 47.0923 500.544 44.1345C500.145 41.1767 497.521 38.413 494.713 37.993C491.905 37.573 491.905 36.8859 494.713 36.4659C497.521 36.0459 500.145 33.2822 500.544 30.3244Z" fill="#FF3E06"/>
</g>
<defs>
<clipPath id="clip0_30_1765">
<rect width="612" height="539" fill="white"/>
</clipPath>
</defs>
</svg>
